<?xml version="1.0" encoding="utf-8"?>
<!-- Generator: Adobe Illustrator 17.0.2, SVG Export Plug-In . SVG Version: 6.00 Build 0)  -->
<!DOCTYPE svg PUBLIC "-//W3C//DTD SVG 1.1//EN" "http://www.w3.org/Graphics/SVG/1.1/DTD/svg11.dtd">
<svg version="1.1" id="Layer_1" xmlns="http://www.w3.org/2000/svg" xmlns:xlink="http://www.w3.org/1999/xlink" x="0px" y="0px"
	 width="150px" height="150px" viewBox="405 205 150 150" enable-background="new 405 205 150 150" xml:space="preserve">
<g opacity="0.4">
	<path d="M426.167,326.764v-51.421c0-14.158,3.315-25.745,9.949-34.764c6.63-9.016,15.761-14.791,27.387-17.327v22.58
		c-3.877,1.195-7.042,2.683-9.501,4.472s-4.359,3.912-5.701,6.372c-1.342,2.459-2.236,5.219-2.683,8.272
		c-0.447,3.056-0.67,6.521-0.67,10.396v5.366h18.556v46.055h-37.337V326.764z M488.542,326.764v-51.421
		c0-14.008,3.315-25.56,9.949-34.653c6.63-9.089,15.685-14.902,27.163-17.438v22.58c-3.877,1.195-7.043,2.683-9.501,4.472
		c-2.459,1.789-4.359,3.912-5.701,6.372c-1.341,2.459-2.235,5.219-2.683,8.272c-0.447,3.056-0.671,6.521-0.671,10.396v5.366h18.556
		v46.055L488.542,326.764L488.542,326.764z"/>
</g>
</svg>
