<?xml version="1.0" encoding="utf-8"?>
<!-- Generator: Adobe Illustrator 17.0.2, SVG Export Plug-In . SVG Version: 6.00 Build 0)  -->
<!DOCTYPE svg PUBLIC "-//W3C//DTD SVG 1.1//EN" "http://www.w3.org/Graphics/SVG/1.1/DTD/svg11.dtd">
<svg version="1.1" id="Layer_1" xmlns="http://www.w3.org/2000/svg" xmlns:xlink="http://www.w3.org/1999/xlink" x="0px" y="0px"
	 width="160px" height="160px" viewBox="0 0 160 160" enable-background="new 0 0 160 160" xml:space="preserve">
<g>
	<path fill="#1D2D4A" d="M136.477,54.639c0.855-0.058,1.849,0.198,2.235-1.014c-1.461-0.234-2.82-0.937-4.298-0.772
		c-1.308,0.146-1.998-0.475-2.715-1.473C114.826,27.859,84.34,18.732,57.522,29.137C30.075,39.787,13.756,67.52,17.718,96.78
		c3.62,26.734,24.436,48.464,51.012,53.321c2.736,0.5,5.54,0.5,8.234,1.24c0.34-0.086,0.68-0.173,1.02-0.259
		c1.441,0.475,2.924,0.239,4.392,0.254c0,0-0.001,0-0.001,0c0,0,0,0,0.001,0c0.332-0.081,0.664-0.162,0.995-0.243
		c2.505-0.272,5.033-0.41,7.511-0.835c43.218-7.411,65.879-55.164,44.346-93.4C134.213,55.054,134.366,54.781,136.477,54.639z
		 M22.414,76.537c0.343-0.3,0.753-0.234,1.082-0.019c1.244,0.812,2.464,1.659,4.114,2.779c-2.428,0.203-3.736-1.245-5.293-2.04
		C22.072,77.131,22.185,76.737,22.414,76.537z M41.759,71.79c-0.488-0.97-1.127-1.613-2.507-1.957
		c3.014-0.798,3.905,2.345,6.349,2.226C43.928,73.52,42.577,73.417,41.759,71.79z M44.8,81.374
		c-2.371,0.245-3.497-1.802-5.439-1.828c1.094-1.465,1.81-1.55,2.926-0.425c0.39,0.393,0.729,0.841,1.135,1.215
		C43.776,80.663,44.193,80.923,44.8,81.374z M41.618,75.019c-1.222,1.044-2.141,0.91-2.97,0.163
		c-0.847-0.764-1.689-1.451-3.014-1.159c0.909-1.576,1.706-1.774,2.907-0.748C39.378,73.99,40.127,74.806,41.618,75.019z
		 M35.995,76.418c-0.728,1.465-1.691,1.654-2.883,0.936c-1.042-0.628-2.002-1.428-3.562-0.984c0.814-1.607,1.923-1.779,2.902-1.036
		C33.504,76.132,34.579,76.478,35.995,76.418z M26.526,70.318c2.761-2.138,3.439,1.626,5.403,1.844
		C29.719,72.802,28.49,70.504,26.526,70.318z M22.443,99.996c-0.041-0.136-0.079-0.263-0.114-0.384
		c-0.513-1.788-0.274-2.006,1.504-2.002c1.786,0.014,3.571,0.026,5.357,0.044c0.827,0.008,1.239,0.325,1.031,1.243
		c-1.056,4.669-2.089,9.344-3.332,14.052C24.741,108.843,23.197,104.558,22.443,99.996z M31.039,120.683
		c-0.658-1.069-1.714-1.974-1.505-3.752c0.884-5.748,1.82-11.822,2.746-17.898c0.11-0.724,0.524-0.907,1.183-0.808
		c4.858,0.735,9.026,2.824,12.507,6.301c0.511,0.51,0.319,0.847-0.069,1.257c-4.649,4.916-9.292,9.836-13.94,14.752
		C31.697,120.814,31.363,121.211,31.039,120.683z M35.7,126.829c-0.426-0.462-0.375-0.851-0.046-1.335
		c4.061-5.969,8.114-11.944,12.158-17.924c0.399-0.59,0.76-0.714,1.33-0.195c3.323,3.028,6.389,6.275,8.734,10.143
		c0.115,0.19,0.21,0.392,0.281,0.524c0.115,0.64-0.357,0.706-0.692,0.844c-6.776,2.79-13.559,5.561-20.328,8.366
		C36.466,127.53,36.114,127.277,35.7,126.829z M41.343,132.437c-0.581-0.506-0.083-0.75,0.315-0.967
		c5.793-3.154,11.59-6.298,17.379-9.46c1.027-0.561,1.132,0.267,1.343,0.859c1.267,3.572,1.566,7.306,1.779,10.473
		c0.102,3.251,0.099,3.273-2.592,2.923c-5.098-0.664-10.19-1.381-15.291-2.021C42.98,134.081,42.216,133.197,41.343,132.437z
		 M58.205,142.85c-3.172-1.284-6.216-2.823-9.115-4.642c-0.445-0.279-0.982-0.48-1.367-1.217c4.642,0.558,8.916,1.106,13.2,1.563
		c1.032,0.11,1.28,0.518,1.266,1.487C62.13,144.204,61.938,144.362,58.205,142.85z M111.766,80.064
		c-1.3,2.017-2.138,4.154-2.051,6.607c0.012,0.332-0.268,0.77-0.544,1c-1.55,1.29-1.683,2.977-1.677,4.843
		c0.016,5.1-0.096,10.2-0.197,15.299c-0.021,1.047,0.118,2.006,0.767,2.847c1.044,1.352,1.293,2.867,1.255,4.564
		c-0.169,7.564-0.267,15.131-0.314,22.697c-0.008,1.276-0.351,2.011-1.543,2.609c-13.255,6.649-27.074,8.254-41.497,4.831
		c-0.978-0.232-1.511-0.5-1.181-1.664c0.271-0.954,0.304-1.975,0.45-3.015c2.968,2.164,5.192,2.291,6.952,0.453
		c1.481-1.546,1.588-4.032,0.245-5.696c-1.654-2.049-3.81-2.075-7.115,0.004c-0.291-4.853-0.57-9.646-2.285-14.206
		c4.592,0.155,6.243-0.704,6.677-3.446c0.324-2.045-0.959-4.111-2.933-4.726c-2.439-0.76-4.376,0.359-5.837,3.537
		c-2.523-4.176-5.672-7.682-9.392-11.155c1.535-0.14,2.703-0.419,3.59-1.331c0.907-0.933,1.371-2.037,1.298-3.342
		c-0.114-2.027-1.685-3.715-3.688-3.984c-2.213-0.298-3.852,0.763-4.759,3.082c-0.417,0.625-0.308,1.325-0.288,2.013
		c-3.616-3.23-7.714-5.539-13.015-6.49c1.797-1.375,2.598-2.889,2.284-4.822c-0.149-0.922-0.581-1.69-1.24-2.331
		c-1.399-1.358-3.621-1.582-5.278-0.548c-2.088,1.303-2.415,3.159-1.109,6.871c-2.395,0-4.726-0.005-7.057,0.003
		c-0.556,0.002-0.811-0.242-0.825-0.8c-0.014-0.574,0.286-0.815,0.808-0.844c1.063-0.059,2.126-0.129,3.19-0.151
		c0.896-0.019,1.372-0.372,1.255-1.326c-0.397-3.244,3.734-6.169,6.882-5.712c3.402,0.494,5.821,3.514,5.235,7.148
		c-0.216,1.338,0.175,1.707,1.312,2.084c1.98,0.655,3.696,1.861,5.386,3.063c0.692,0.492,1.125,0.793,1.539-0.333
		c0.535-1.454,1.923-1.954,3.276-2.381c0.634-0.2,1.298-0.309,1.947-0.459c0.06-0.625-0.436-0.791-0.741-1.05
		c-7.403-6.291-15.704-10.305-25.67-10.025c-1.06,0.03-2.114,0.25-3.174,0.301c-0.467,0.022-1.198,0.562-1.365-0.368
		c-0.148-0.824,0.219-1.36,1.109-1.557c2.773-0.613,5.565-0.666,8.353-0.241c4.946,0.754,9.462,2.703,13.749,5.199
		c9.051,5.271,16.805,12.11,23.675,19.956c4.397,5.022,9.308,9.252,15.817,11.218c7.708,2.328,15.067,0.929,22.218-2.302
		c1.303-0.589,0.953-1.601,0.62-2.563c-0.303-0.875-0.665-1.344-1.819-0.791c-1.35,0.647-2.962-0.409-4.477,0.425
		c-0.065-0.972,0.35-1.366,1.136-1.409c0.614-0.033,1.232-0.011,1.848-0.015c1.217-0.009,1.995-0.018,1.689-1.841
		c-0.393-2.346-0.148-4.804-0.121-7.212c0.013-1.153-0.297-1.374-1.34-0.787c-8.102,4.553-15.885,3.617-23.417-1.423
		c-5.113-3.421-9.444-7.73-13.736-12.079c-4.842-4.906-9.603-9.893-14.845-14.386c-4.621-3.962-9.684-7.057-15.797-8.103
		c-3.522-0.603-7.017-0.404-10.52,0.526c0.693-3.041,1.211-3.499,4.429-3.744c7.265-0.553,13.836,1.554,19.942,5.334
		c4.806,2.975,8.811,6.897,12.75,10.893c4.248,4.309,8.191,8.921,12.702,12.968c4.471,4.011,9.381,7.329,15.362,8.618
		c4.184,0.902,8.337,1.032,12.16-1.481c1.076-0.707,1.738-1.508,1.646-2.855c-0.049-0.723,0.113-1.461,0.054-2.182
		c-0.208-2.529,0.371-4.755,2.279-6.544c0.604-0.567,0.856-1.302,0.746-2.137c-0.215-1.64,0.265-3.093,1.185-4.427
		c0.955-1.386,1.421-2.893,1.206-4.59c-0.389-3.069,0.4-5.819,2.034-8.44c1.241-1.991,2.224-4.144,3.305-6.233
		c0.803-1.552,0.785-1.567-1.023-1.578c-2.163-0.013-2.163-0.013-1.763-2.171c-0.518-0.408-1.372,1.839-1.757-0.24
		c-0.059-0.316-1.104,1.34-1.509-0.211c-0.35-1.339-0.716,0.1-1.291,0.03c-0.121-1.597-0.251-3.245-0.364-4.894
		c-0.022-0.328-0.04-0.691,0.324-0.883c2.467-1.304,0.497-2.934,0.226-4.35c-0.281-1.471-1.515-1.99-2.968-1.863
		c-1.674,0.147-3.351,0.275-5.014,0.508c-0.872,0.122-1.418,0.066-1.417-0.991c0.001-1.916-0.939-2.912-2.9-2.839
		c-0.71,0.026-0.873-0.405-1.083-1.004c-0.64-1.832-2.137-2.504-3.869-1.589c-1.41,0.745-2.765,0.697-4.225,0.429
		c-0.987-0.181-1.999-0.381-2.992-0.345c-2.263,0.083-2.843,0.685-2.97,2.96c-0.054,0.969-0.027,1.799-1.402,1.647
		c-0.817-0.09-1.165,0.533-1.314,1.255c-0.07,0.34-0.169,0.726-0.584,0.685c-0.582-0.057-0.405-0.568-0.406-0.927
		c-0.001-0.276,0.084-0.552,0.12-0.829c0.166-1.304-0.323-2.698-1.411-2.965c-2-0.49-2.691-1.889-3.536-3.419
		c-0.528-0.956-1.569-1.69-2.701-1.148c-2.546,1.219-5.145,0.761-7.756,0.551c-0.67-0.054-1.343-0.111-2.014-0.099
		c-2.485,0.044-3.643,1.171-3.48,3.668c0.094,1.431-0.094,2.263-1.76,2.117c-1.017-0.089-1.451,0.567-1.735,1.471
		c-0.651,2.072-0.794,4.204-0.6,6.322c0.346,3.779-1.1,7.283-1.496,10.945c-0.126,1.166-1.412,1.118-2.162,1.099
		c-0.939-0.024-0.263-0.808-0.187-1.267c0.053-0.32,0.278-0.744-0.094-0.89c-0.488-0.192-0.724,0.436-1.141,0.572
		c-0.318-0.292,0.654-1.409-0.674-1.055c-1.448,1.305-0.704-0.893-1.448-0.782c-0.555-0.055-0.418,0.848-1.039,0.923
		c-0.469-0.499-0.671-1.129-0.9-1.744c-0.111-0.076-0.288-0.239-0.324-0.213c-0.336,0.25-0.133,0.546-0.032,0.83
		c0.038,1.599-0.377,1.972-1.869,1.399c-3-1.154-5.793-2.667-8.093-4.99c-0.824-0.832-0.866-1.483-0.14-2.442
		c9.94-13.129,22.93-21.367,39.287-23.554c21.726-2.906,39.77,4.345,54.126,20.859c0.455,0.524,0.98,1.023,1.316,2.231
		c-2.375-1.708-4.649-1.727-7.024-1.321c-0.919,0.157-1.332,0.482-1.186,1.378c0.816,5.035-1.081,9.299-3.758,13.348
		c-0.123,0.186-0.199,0.405-0.33,0.585c-2.513,3.45-3.529,7.28-2.998,11.528C112.016,78.846,112.115,79.522,111.766,80.064z
		 M48.576,79.515c-0.698-0.632-1.268-1.406-1.896-2.117c-0.273-0.073-0.651-0.303-0.537-0.482c0.261-0.409,0.64-0.143,0.952,0.068
		c1.541,0.518,2.469,2.129,4.256,2.254C50.444,80.337,49.598,80.439,48.576,79.515z M54.669,86.491
		c-1.673,1.76-2.011,1.586-5.866-2.712C51.324,83.709,52.116,86.701,54.669,86.491z M57.186,88.989
		c2.804-2.02,3.449,1.832,5.459,1.986C60.425,91.354,59.165,89.262,57.186,88.989z M64.414,96.681
		c-0.876,1.284-1.766,1.248-2.643,0.321c-0.719-0.76-1.326-1.624-1.983-2.442c-0.262-0.079-0.621-0.331-0.485-0.487
		c0.374-0.429,0.829-0.193,1.221,0.094C61.825,94.953,62.573,96.537,64.414,96.681z M57.594,84.341
		c-0.606-0.798-1.333-1.451-2.416-2.003c1.463-0.814,2.404-0.663,3.022,0.63c0.419,0.875,1.102,1.47,2.318,1.685
		C59.113,85.757,58.295,85.264,57.594,84.341z M68.32,96.26c-0.602-0.81-1.075-1.735-2.652-1.832
		c1.609-1.237,2.594-1.05,3.358,0.178c0.569,0.914,1.181,1.749,2.486,2.061C70.079,97.727,69.114,97.329,68.32,96.26z
		 M71.905,102.272c-1.779,1.373-2.413,1.34-3.502,0.014c-0.698-0.85-1.256-1.814-2.313-2.589
		C68.799,99.186,69.355,102.379,71.905,102.272z M75.139,106.21c1.501-0.967,2.28-0.878,3.197,0.332
		c0.635,0.839,1.175,1.75,2.186,2.276C77.904,109.512,77.372,106.426,75.139,106.21z M79.724,113.616
		c-0.355,0.419-0.96,0.133-1.361-0.156c-1.168-0.839-1.835-2.236-3.497-2.921c1.487-0.931,2.48-0.68,3.258,0.483
		c0.37,0.553,0.682,1.147,0.998,1.734C79.299,113.085,79.962,113.335,79.724,113.616z M77.314,103.158
		c-0.298,0.317-0.709,0.018-1.033-0.196c-1.451-0.513-2.077-2.177-3.662-2.526c1.142-1.13,1.978-1.117,2.838,0.002
		c0.538,0.699,0.739,1.621,1.452,2.206C77.124,102.767,77.561,102.895,77.314,103.158z M98.239,113.639
		c-2.088,1.97-3.943-0.782-5.953,0.266C93.251,112.153,93.251,112.153,98.239,113.639z M97.213,107.516
		c1.571-2.22,4.204-0.273,6.016-2.151C102.739,108.159,102.415,108.249,97.213,107.516z M93.504,109.745
		c-0.875,0.67-1.786,0.522-2.684,0.06c-0.976-0.503-1.866-1.186-3.128-1.231c0.627-0.82,1.32-0.775,1.96-0.581
		c1.179,0.357,2.325,0.815,3.589,0.797c0.189-0.003,0.468,0.112,0.553,0.259C93.96,109.338,93.726,109.576,93.504,109.745z
		 M91.091,116.691c-2.213,1.149-3.74-1.126-5.799-0.94c0.749-1.452,1.217-1.625,2.435-0.922
		C88.82,115.461,89.746,116.404,91.091,116.691z M87.93,111.211c-0.925,1.862-0.925,1.862-6.201-0.27
		C84.008,109.566,85.877,112.149,87.93,111.211z M80.966,104.667c1.188-1.217,2.155-0.973,3.055-0.17
		c0.846,0.756,1.575,1.652,2.738,2.019C84.419,107.177,83.21,104.796,80.966,104.667z M66.11,63.174
		c0.277,0.923-0.062,1.216-0.922,1.224c-0.389,0.004-0.785,0.044-1.165,0.125c-1.3,0.279-1.549-0.277-1.584-1.517
		c-0.112-3.971-0.106-7.926,0.528-11.858c0.185-1.144-0.166-2.102-0.953-2.906c-0.747-0.764-0.456-1.12,0.45-1.282
		c0.055-0.01,0.107-0.031,0.162-0.045c5.054-1.273,5.054-1.273,5.19,5.406c0.316,2.33-0.027,5.103-1.347,7.748
		C65.994,61.021,65.792,62.116,66.11,63.174z M77.95,81.01c0.325,0.562,0.65,1.124,0.977,1.691c0.678,0.015,0.532-0.82,1.044-0.942
		c0.819,1.472,2.107,1.226,3.388,1.026c-0.566,2.604-1.225,3.179-4.788,2.576C75.195,84.79,78.528,82.456,77.95,81.01z
		 M90.748,48.26c-0.618,3.541-0.477,7.125-0.439,10.695c0.026,2.467,0.104,2.466-2.57,2.667c-1.046,0.364-1.421-0.145-1.554-1.297
		c-0.397-3.439-0.907-6.864-1.369-10.295c-0.199-1.473-0.098-2.653,1.885-2.726c1.03-0.038,2.004-0.646,3.115-0.419
		C90.638,47.052,90.899,47.394,90.748,48.26z M92.361,68.682c0.229,0.811-0.18,2.635,1.821,0.778
		c-0.407,1.217-0.591,2.318-1.467,2.492c-1.389,0.276-2.901,0.412-4.263-0.121c-0.422-0.165-0.904-1.133-0.767-1.529
		c0.17-0.491,1.131-0.597,1.232-1.376c1.66,1.03,1.075-0.975,1.735-1.28C91.41,67.891,90.622,70.045,92.361,68.682z M100.183,52.307
		c-0.042-1.401,1.232-1.421,2.169-1.521c1.201-0.127,0.839,0.908,0.903,1.547c0.061,0.606,0.013,1.223,0.013,1.835
		c-0.02,0.001-0.039,0.001-0.059,0.002c-0.121,1.443-0.217,2.889-0.372,4.328c-0.095,0.884-0.402,1.673-1.501,1.647
		c-1.059-0.025-0.752-0.935-0.872-1.51C100.026,56.547,100.245,54.417,100.183,52.307z M100.638,81.987
		c0.084,0.188,0.168,0.32,0.203,0.463c0.101,0.414-0.182,1.016,0.297,1.215c0.504,0.209,0.779,0.33,0.502,0.92
		c-0.232,0.494-0.502,0.849-1.109,0.837c-0.837-0.016-1.676-0.03-2.511,0.014c-0.856,0.046-1.534-0.075-1.764-1.075
		c-0.164-0.712-0.237-1.095,0.43-1.837c0.903-1.004,0.922,0.492,1.431,0.106c0.18-0.544,0.383-1.159,0.623-1.882
		c0.707,0.578,0.432,1.466,1.01,2.008C100.024,82.518,100.303,82.277,100.638,81.987z M117.239,86.448
		c-1.16-0.051-0.76-1.047-0.757-1.664c0.003-0.613-0.416-1.631,0.755-1.654c1.346-0.027,0.625,1.121,0.878,1.717
		C117.925,85.464,118.463,86.502,117.239,86.448z M113.543,83.129c1.346-0.021,0.616,1.127,0.872,1.721
		c-0.189,0.619,0.347,1.658-0.879,1.598c-1.158-0.056-0.756-1.051-0.754-1.668C112.784,84.166,112.371,83.148,113.543,83.129z
		 M114.374,135.151c0,0.332-0.004,0.688-0.119,0.989c-0.167,0.437-0.576,0.795-1.006,0.786c-0.651-0.013-0.476-0.642-0.478-1.032
		c-0.019-3.637-0.011-7.274-0.011-10.911c0-3.525-0.011-7.05,0.012-10.575c0.004-0.556-0.209-1.327,0.773-1.364
		c0.999-0.038,0.825,0.721,0.826,1.292C114.382,121.275,114.38,128.213,114.374,135.151z M116.055,134.815
		c-0.419-0.443-0.263-0.973-0.264-1.451c-0.012-6.214-0.008-12.427-0.007-18.641c0-0.224,0.001-0.448,0.012-0.672
		c0.025-0.524,0.064-1.008,0.797-1.014c0.742-0.007,0.784,0.469,0.786,1c0.005,2.015,0.008,4.03,0.009,6.046
		c0.001,4.198-0.018,8.397,0.011,12.595C117.406,133.719,117.229,134.546,116.055,134.815z M118.653,132.612
		c0-6.349,0.001-12.49-0.002-18.63c0-0.569,0.125-0.974,0.833-0.944c0.722,0.03,0.772,0.509,0.774,1.035
		c0.008,1.732,0.01,3.464,0.011,5.196c0.001,3.632-0.022,7.264,0.013,10.895C120.293,131.268,120.043,132.12,118.653,132.612z
		 M123.055,128.135c0,0.912-0.583,1.368-1.617,1.938c0-5.565,0-10.815,0-16.064c0-0.565,0.14-0.969,0.839-0.973
		c0.742-0.004,0.78,0.464,0.78,0.999C123.056,118.735,123.056,123.435,123.055,128.135z M119.358,104.319
		c-3.538-0.027-6.397-2.915-6.38-6.443c0.017-3.52,2.905-6.381,6.447-6.387c3.642-0.006,6.491,2.891,6.431,6.537
		C125.796,101.601,122.961,104.347,119.358,104.319z M120.963,83.124c1.234-0.024,0.642,1.014,0.853,1.612
		c-0.243,0.609,0.448,1.764-0.902,1.705c-1.148-0.051-0.73-1.066-0.733-1.682C120.179,84.147,119.776,83.147,120.963,83.124z
		 M125.517,84.751c-0.244,0.579,0.421,1.624-0.76,1.687c-1.319,0.07-0.864-1.045-0.875-1.7c-0.01-0.61-0.399-1.614,0.799-1.614
		C125.913,83.124,125.293,84.161,125.517,84.751z M126.114,124.29c0.014,1.132-0.464,1.869-1.661,2.619c0-2.228,0-4.213,0-6.198
		c0.001-2.128-0.007-4.255,0.009-6.383c0.004-0.593-0.12-1.304,0.857-1.287c1.023,0.018,0.764,0.79,0.768,1.338
		C126.111,117.683,126.073,120.987,126.114,124.29z M137.852,80.488c0.105-0.344,0.375-0.512,0.724-0.573
		c0.339,0.085,0.336,0.373,0.349,0.632c0.022,0.472-0.286,0.517-0.648,0.467C137.975,80.971,137.742,80.85,137.852,80.488z
		 M139.041,85.515c-0.998,2.581-4.009,1.216-4.928,3.783c-0.219-2.631,0.23-3.227,2.087-3.274
		C137.041,86.003,137.847,85.864,139.041,85.515z M130.898,76.839c1.901-1.346,4.162-0.417,5.806-1.72
		C137.135,77.503,135.311,77.205,130.898,76.839z M135.992,68.376c0.479,0.825,1.163,1.879-0.32,2.689
		c-1.918,1.047-3.687,2.343-5.388,3.719c-1.615,1.306-2.148,3.114-1.391,4.683c0.839,1.739,2.306,2.474,4.378,2.186
		c0.266-0.037,0.528-0.223,0.836,0.06c-0.038,1.145-0.877,1.341-1.807,1.485c-0.636,0.099-1.411,0.056-1.481,1.018
		c-0.062,0.846-0.21,1.747,0.794,2.163c1.47,0.609,1.613,1.765,1.534,3.152c-0.099,1.73-0.043,3.469-0.042,5.204
		c0,0.083,0.118,0.165,0.256,0.344c2.109-1.43,3.669-3.502,5.786-5.102c0.4,1.125,0.152,1.935-0.55,2.69
		c-1.603,1.723-3.161,3.489-4.778,5.198c-0.62,0.655-0.911,1.351-0.88,2.257c0.049,1.455-0.074,2.92,0.029,4.369
		c0.229,3.209-0.17,6.232-2.092,8.938c-0.857,1.207-0.463,2.623-0.356,3.931c0.126,1.528-0.325,2.731-1.395,3.766
		c-0.585-0.16-0.362-0.637-0.369-0.967c-0.029-1.456,0.091-2.923-0.038-4.369c-0.195-2.181,0.249-4.089,1.82-5.679
		c0.716-0.725,0.867-1.622,0.861-2.624c-0.031-5.604-0.032-11.208,0.001-16.811c0.006-0.959-0.172-1.762-0.931-2.388
		c-1.067-0.882-1.597-1.98-1.361-3.393c0.163-0.976-0.229-1.744-0.962-2.362c-1.021-0.86-1.457-1.958-1.301-3.277
		c0.648-5.486-0.905-10.346-4.075-14.793c-0.84-1.179-1.409-2.548-2.167-3.791c-0.726-1.19-1.102-2.919-0.297-3.578
		c1.027-0.84,2.504-1.87,4.114-1.45c1.886,0.492,3.657,1.433,5.69,1.301c0.54-0.035,0.733,0.461,0.957,0.835
		c0.46,0.769,0.907,1.547,1.326,2.338c0.202,0.382,0.612,0.82,0.306,1.23c-0.309,0.414-0.819,0.118-1.252,0.035
		c-1.868-0.359-3.737-0.722-5.613-1.036c-0.863-0.144-1.746-0.249-2.918,0.003c1.632,2.533,3.152,4.922,4.705,7.289
		c0.743,1.132,1.459,2.218,1.26,3.702c-0.152,1.13,0.484,0.86,1.084,0.439c1.467-1.031,2.91-2.099,4.42-3.063
		C134.835,68.433,135.423,67.394,135.992,68.376z"/>
	<path fill="#1D2D4A" d="M158,74.388c-0.286-0.538-0.578-1.072-0.856-1.614c-0.374-0.729-0.606-1.588-1.237-0.066
		c-0.348,0.838-1.479,0.812-2.257,0.685c-0.768-0.126-0.278-0.939-0.328-1.433c-0.186-1.832-1.396-3.049-3.149-3.075
		c-1.852-0.028-3.676,1.382-3.461,3.127c0.237,1.927,0.544,3.94,1.776,5.898c0.172-1.489,1.206-1.478,2.135-1.677
		c2.461-0.525,4.915-1.078,7.372-1.62C157.972,74.538,157.974,74.463,158,74.388z M149.314,74.413
		c-1.049,0.005-1.542-0.601-1.652-1.502c-0.131-1.069,1.336-1.982,3.009-1.953c1.05-0.052,1.745,0.356,1.774,1.484
		C152.476,73.662,151.228,74.404,149.314,74.413z"/>
	<path fill="#1D2D4A" d="M9.954,70.808c-1.601-0.619-2.448-2.248-3.728-3.312c-0.645-0.536-0.85-2.019-1.397-1.748
		c-0.845,0.418-0.677,1.765-0.862,2.737c-0.027,0.143,0.066,0.309,0.106,0.476c1.582-0.923,2.456-0.488,4.037,2.097
		c-1.588-0.02-2.969,2.047-4.576,0.029c-0.084,0.149-0.199,0.281-0.236,0.432c-0.271,1.086-0.526,2.175-0.786,3.264
		c0.012,0.275,0.025,0.55,0.039,0.826c1.49-1.13,3.276-1.571,5.001-2.149c2.502-0.838,3.783-0.439,5.202,1.715
		c0.569-1.635,0.956-3.188,0.936-4.972C12.605,71.95,11.159,71.274,9.954,70.808z"/>
	<path fill="#1D2D4A" d="M85.753,10.942c0.591-0.93,1.464-0.92,2.379-0.644c1.005,0.303,0.532,1.085,0.472,1.685
		c-0.135,1.335-0.354,2.662-0.5,3.996c-0.141,1.292-0.069,2.675-1.795,3.206c1.673,0.404,3.207,0.885,5.005,0.42
		c-1.538-0.54-1.261-1.621-1.113-2.688c0.215-1.552,0.357-3.114,0.589-4.662c0.09-0.602-0.072-1.46,0.95-1.487
		c0.895-0.023,1.676,0.186,2.019,1.15c0.138,0.388,0.015,0.934,0.623,1.045c1.021-2.276,0.849-2.671-1.434-2.991
		c-2.548-0.358-5.105-0.656-7.658-0.981c0,0-0.14,0.025-0.141,0.026c-0.29,0.924-0.593,1.847-0.24,2.825
		C85.555,11.719,85.554,11.256,85.753,10.942z"/>
	<path fill="#1D2D4A" d="M31.515,35.416c1.898,0.967,3.997,0.75,5.606-0.732c0.941-0.866,1.673-1.958,2.599-2.843
		c0.628-0.599,0.493-1.026-0.013-1.521c-0.807-0.789-1.348-1.684-0.994-3.148c-1.462,1.041-2.697,1.813-3.659,3.101
		c1.901,0.026,2.731,0.684,2.633,1.954c-0.094,1.213-1.531,2.285-2.933,2.195c-0.514-0.033-0.994-0.167-1.419-0.459
		c-1.272-0.875-2.253-1.993-2.853-3.43c-0.501-1.201-0.386-2.324,0.531-3.261c0.895-0.915,1.98-1.141,3.24-0.764
		c0.462,0.138,1.047,0.916,1.437,0.202c0.276-0.505-0.508-0.897-0.819-1.336c-0.193-0.273-0.43-0.515-0.658-0.761
		c-0.339-0.367-0.821-0.433-0.854,0.106c-0.054,0.866-0.652,0.748-1.155,0.894c-2.149,0.625-3.536,2.291-3.729,4.463
		C28.273,32.326,29.428,34.354,31.515,35.416z"/>
	<path fill="#1D2D4A" d="M117.49,29.406c0.401-0.8,1.162-1.453,1.183-2.402c-0.467-0.227-0.636,0.017-0.86,0.179
		c-1.477,1.067-2.804,1.019-4.059-0.226c-1.196-1.186,0.182-1.994,0.538-2.935c0.142-0.375,0.316-0.946,0.929-0.721
		c0.517,0.19,1.062,0.423,1.202,1.061c0.076,0.346-0.265,0.794,0.408,1.097c0.644-0.869,1.304-1.739,1.529-3.141
		c-1.031,0.482-2.024,1.029-2.684,0.047c-0.577-0.86,0.482-1.452,0.735-2.191c0.313-0.915,0.834-0.861,1.671-0.463
		c1.392,0.661,2.088,1.659,2.053,3.291c0.672-0.874,1.946-1.757,0.863-2.534c-2.061-1.478-4.408-2.558-6.637-3.804
		c-0.111,0.102-0.222,0.204-0.333,0.307c1.591,2.136-0.422,3.425-1.179,4.906c-0.746,1.46-0.985,3.648-3.569,3.524
		c2.434,1.515,4.816,2.844,7.202,4.167C116.854,29.773,117.254,29.877,117.49,29.406z"/>
	<path fill="#1D2D4A" d="M61.29,21.905c1.87-0.379,3.797-0.797,5.545-1.951c-1.212-0.244-1.43-1.096-1.65-1.981
		c-0.459-1.842-0.949-3.675-1.432-5.511c-0.534-2.029-0.554-2.046-2.362-1.013c-0.543,0.31-1.769,0.571-0.102,1.216
		c0.953,0.369,0.967,1.515,0.936,2.331c-0.037,0.952-0.879,0.215-1.329,0.275c-1.904,0.252-3.221,1.701-3.073,3.533
		C57.972,20.63,59.559,22.256,61.29,21.905z M61.427,16.169c1.143,0.026,2.088,1.468,2.046,3.189c-0.025,0.992-0.682,1.5-1.627,1.54
		c-1.058,0.045-2.042-1.475-2.017-3.344C59.873,16.841,60.297,16.143,61.427,16.169z"/>
	<path fill="#1D2D4A" d="M149.76,60.853c-0.205-0.237-0.7-0.368-0.531-0.752c0.52-1.181-0.642-1.642-0.989-2.444
		c-0.149-0.344-0.469-0.456-0.783-0.075c-1.653,2.009-2.606,2.357-4.812,1.666c0.398,1.308,0.678,2.553,1.565,3.696
		c0.776-1.772,2.257-1.986,3.757-2.109c0.621-0.051,1.085,0.311,1.255,0.909c0.202,0.711-0.305,1.018-0.857,1.214
		c-1.256,0.447-2.43,1.394-4.055,0.451c0.298,1.499,0.746,2.636,1.598,3.977c0.265-1.861,1.695-1.927,2.811-2.393
		C150.891,64.087,151.28,62.613,149.76,60.853z"/>
	<path fill="#1D2D4A" d="M119.266,31.314c0.893,0.726,1.682,1.409,2.514,2.032c0.641,0.48,0.744,0.386,0.766-0.5
		c0.038-1.519,1.178-2.467,2.457-3.065c0.82-0.384,1.791,0.522,1.357,1.23c-0.772,1.26-1.361,2.84-3.522,3.02
		c1.124,1.046,1.948,1.976,3.416,2.478c-0.748-1.75,0.564-2.498,1.268-3.484c1.281-1.792,0.814-3.32-1.276-4.008
		c-0.324-0.107-0.839,0.161-0.93-0.44c-0.172-1.135-1.29-1.048-1.977-1.51c-0.322-0.216-0.765-0.108-0.711,0.33
		C122.931,29.817,121.357,30.648,119.266,31.314z"/>
	<path fill="#1D2D4A" d="M42.677,27.193c1.325,2.186,2.596,2.348,4.316,0.479c0.203-0.22,0.229-0.643,0.691-0.582
		c1.288,0.17,1.864-0.816,2.938-1.728c-2.033,0.104-2.277-1.356-2.89-2.397c-1.305-2.218-1.28-2.234-3.413-0.75
		c-0.086,0.06-0.137,0.17-0.302,0.385c1.336,0.384,2.483,1.592,2.747,2.87c0.141,0.682,0.088,1.391-0.618,1.748
		c-0.803,0.406-1.231-0.149-1.58-0.778c-0.271-0.488-0.553-0.971-0.826-1.458c-1.196-2.135-1.883-2.164-3.528-0.047
		C41.937,24.751,42.09,26.224,42.677,27.193z"/>
	<path fill="#1D2D4A" d="M20.555,54.068c0.062-0.341-0.162-0.753,0.355-0.998c1.133-0.537,1.174-1.668,1.503-2.756
		c-1.454,0.443-1.454,0.443-3.542-0.734c-2.445-1.378-2.461-1.372-3.564,1.722c1.911-1.039,2.985,0.224,4.118,1.071
		c0.495,0.37,0.564,1.112,0.187,1.695c-0.451,0.696-1.053,0.437-1.62,0.132c-0.541-0.291-1.078-0.589-1.612-0.892
		c-2.095-1.188-2.74-0.818-2.999,1.725c1.188-0.373,1.188-0.373,3.476,0.813C18.92,56.918,20.144,56.323,20.555,54.068z"/>
	<path fill="#1D2D4A" d="M142.135,48.808c-0.312,0.232-0.349,0.559-0.223,0.898c0.194,0.522,0.608,0.591,1.094,0.496
		c0.163-0.032,0.333-0.059,0.498-0.05c0.592,0.033,0.888,0.432,1.036,0.938c0.118,0.404-0.005,0.772-0.366,1.032
		c-0.617,0.444-0.899-0.132-1.251-0.429c-0.723-0.61-1.373-1.331-2.339-1.565c-0.618-0.149-1.233-0.136-1.728,0.338
		c-0.515,0.493-0.56,1.159-0.257,1.703c0.793,1.426,2.216,2.455,2.45,4.264c0.069,0.532,0.996,0.904,1.559,0.518
		c0.986-0.676-0.458-0.504-0.419-0.939c0.03-0.338,0.218-0.487,0.454-0.628c0.671-0.399,1.346-0.793,2.023-1.182
		c0.722-0.416,1.219-0.972,1.197-1.863c-0.046-1.18-1.449-3.236-2.455-3.612C142.966,48.562,142.537,48.51,142.135,48.808z
		 M141.411,53.665c-0.666-0.155-1.221-0.415-1.223-1.176c-0.002-0.596,0.447-0.713,0.936-0.687c0.66,0.036,1.34,0.341,1.441,0.935
		C142.677,53.405,141.867,53.438,141.411,53.665z"/>
	<path fill="#1D2D4A" d="M13.452,58.807c-1.919-0.073-3.503,1.593-3.637,3.828c-0.118,1.967,1.236,3.508,3.159,3.592
		c1.811,0.08,3.544-1.741,3.674-3.861C16.767,60.429,15.377,58.881,13.452,58.807z M14.193,64.322
		c-1.492,0.027-3.475-1.133-3.477-2.091c-0.002-0.971,0.487-1.611,1.521-1.626c1.607-0.023,3.589,1.282,3.496,2.309
		C15.652,63.8,15.172,64.363,14.193,64.322z"/>
	<path fill="#1D2D4A" d="M99.315,21.978c2.051,0.024,3.467-1.278,3.507-3.223c0.039-1.899-1.698-3.451-3.93-3.512
		c-1.995-0.055-3.44,1.292-3.485,3.249C95.363,20.439,97.059,21.952,99.315,21.978z M97.4,19.424
		c0.053-1.91,0.933-3.363,1.991-3.302c1.108,0.064,1.541,0.712,1.476,1.796c-0.109,1.814-0.996,3.31-2.036,3.253
		C97.705,21.11,97.306,20.396,97.4,19.424z"/>
	<path fill="#1D2D4A" d="M72.385,19.85c1.648,0.057,2.586-0.518,3.071-1.927c-0.892,0.085-1.386,0.949-2.254,0.96
		c-1.155,0.015-1.823-0.546-1.984-1.613c-0.19-1.262,0.945-0.788,1.511-0.966c0.572-0.18,1.213-0.154,1.825-0.194
		c1.017-0.066,1.039-0.591,0.668-1.351c-0.821-1.683-3.23-2.148-4.934-0.903c-1.268,0.926-1.699,2.23-1.246,3.701
		C69.532,19.141,70.793,19.796,72.385,19.85z M72.357,13.963c0.629,0.023,1.169,0.483,1.084,1.053
		c-0.143,0.953-1.103,0.288-1.526,0.599c-0.454-0.024-0.985,0.147-0.924-0.481C71.067,14.359,71.589,13.935,72.357,13.963z"/>
	<path fill="#1D2D4A" d="M133.967,45.092c0.888,1.51,1.625,2.642,2.965,3.694c-0.665-1.637,0.553-2.003,1.355-2.609
		c1.652-1.247,3.338-2.449,4.993-3.692c0.35-0.263,1.082-0.499,0.461-1.118c-0.608-0.607-1.14-1.355-2.219-1.687
		c0.412,2.46-1.731,2.793-2.974,3.758C137.312,44.4,136.276,46.111,133.967,45.092z"/>
	<path fill="#1D2D4A" d="M130.281,42.553c0.291,0.371,0.711,0.811,0.236,1.317c-0.414,0.441-0.912,0.27-1.38,0.053
		c-1.774-0.822-2.32-2.411-1.422-4.126c-0.568-0.372-1.109-0.507-1.626,0.104c-0.478,0.565-0.362,1.121-0.054,1.705
		c0.584,1.106,1.355,2.058,2.389,2.759c1.09,0.739,2.262,1.11,3.35,0.033c1.166-1.155,0.458-2.24-0.252-3.294
		c-0.55-0.818-1.579-1.286-1.745-2.385c1.196-0.01,1.805,1.012,2.692,1.542c1.141,0.682,2.196,0.859,3.071-0.376
		c0.283-0.4,0.457-0.834,0.81-0.048c0.159,0.354,0.515,0.433,0.834,0.16c0.405-0.346,0.26-0.875-0.068-0.989
		c-1.424-0.495-1.599-2.058-2.609-2.886c-0.802-0.657-1.617-1.19-2.729-0.823c-1.103,0.364-1.357,1.2-1.346,2.235
		c0.002,0.173-0.213,0.348-0.328,0.522c-1.369-0.769-1.872,0.139-2.302,1.189C128.434,40.492,129.429,41.467,130.281,42.553z
		 M133.358,36.628c0.72,0.023,1.18,0.326,1.145,1.008c-0.05,0.975-0.706,1.536-1.6,1.671c-0.622,0.094-1.129-0.342-1.079-0.999
		C131.895,37.377,132.49,36.813,133.358,36.628z"/>
	<path fill="#1D2D4A" d="M19.829,45.486c2.3-0.138,3.59,0.919,3.801,3.337c1.099-1.278,2.087-2.386,2.653-3.899
		c-1.729,1.215-2.58-0.219-3.427-1.087c-1.033-1.059-0.341-1.686,0.796-2.141c0.461-0.185,0.443-0.769,0.116-1.161
		c-0.351-0.422-0.833-0.571-1.35-0.282c-0.641,0.359-0.901,0.935-0.955,1.659c-0.024,0.32,0.269,0.928-0.361,0.904
		c-1.52-0.058-1.199,1.348-1.714,2.072C19.186,45.172,19.307,45.517,19.829,45.486z"/>
	<path fill="#1D2D4A" d="M50.596,19.781c-0.026,0.061,0.197,0.33,0.301,0.328c1.349-0.031,1.267,1.182,1.717,1.934
		c0.533,0.891,0.543,1.779-0.294,2.847c1.597-0.353,2.726-0.881,3.91-1.673c-1.202-0.213-1.475-1.126-1.811-1.991
		c-0.302-0.777-0.608-1.554-0.934-2.322c-0.183-0.432-0.293-1.12-0.998-0.656C51.81,18.694,50.951,18.946,50.596,19.781z"/>
	<path fill="#1D2D4A" d="M51.045,16.536c0.651,0.017,1.013-0.352,1.082-1.077c-0.065-0.557-0.35-0.988-1.027-0.992
		c-0.652-0.004-1.045,0.354-1.064,1.011C50.017,16.138,50.394,16.52,51.045,16.536z"/>
	<path fill="#1D2D4A" d="M105.329,119.849c-3.919,1.648-8.051,2.291-12.292,2.357c-8.12,0.126-15.393-1.952-21.202-7.97
		c-0.579-0.6-1.265-1.097-1.902-1.642c-0.35-0.539-0.799-0.975-1.347-1.309c-3.184-3.346-6.367-6.693-9.682-10.177
		c-0.366,2.089-1.515,3.439-2.956,4.559c-0.654,0.508-0.821,0.88-0.193,1.575c1.501,1.66,2.942,3.375,4.363,5.104
		c0.504,0.613,0.844,0.611,1.49,0.136c2.142-1.574,4.465-1.977,6.937-0.75c0.449,0.442,0.899,0.883,1.348,1.325
		c2.651,5.202,1.697,7.828-3.682,10.132c-0.051,0.022-0.103,0.047-0.156,0.061c-0.664,0.173-0.825,0.505-0.656,1.227
		c0.368,1.575,0.648,3.178,0.856,4.783c0.356,2.746,0.322,2.734,3.019,2.876c0.777,0.041,1.558,0.152,2.32,0.315
		c1.79,0.382,3.251,1.258,3.933,3.05c1.558,4.092-1.247,8.287-5.626,8.454c-0.559,0.021-1.119,0.008-1.679,0.01
		c-0.26-0.148-0.727-0.416-0.779-0.13c-0.076,0.42,0.446,0.421,0.802,0.425c13.176,2.803,25.688,0.321,37.88-4.743
		c0.713-0.296,1.023-0.731,1.003-1.528c-0.142-5.711-0.26-11.423-0.36-17.136C106.751,119.776,106.575,119.326,105.329,119.849z"/>
	<path fill="#1D2D4A" d="M106.039,39.301c-0.747-0.354-1.454-0.406-2.419,0.364c0.666,0,0.976,0,1.287,0
		c0.914,0.205,1.47,0.939,2.227,1.55c0.407-1.259,1.569-1.343,2.723-1.672C108.499,38.495,107.222,39.886,106.039,39.301z"/>
	<path fill="#1D2D4A" d="M113.775,43.673c-0.747-0.354-1.454-0.406-2.419,0.364c0.666,0,0.976,0,1.287,0
		c0.914,0.205,1.47,0.939,2.227,1.55c0.407-1.259,1.569-1.343,2.723-1.672C116.234,42.867,114.958,44.258,113.775,43.673z"/>
	<path fill="#1D2D4A" d="M121.531,97.7c-1.248,0.079-1.975-0.165-1.908-1.698c0.037-0.855,0.641-2.431-0.559-2.486
		c-0.841-0.039-0.193,1.615-0.429,2.347c0.022,3.653-0.205,2.824,2.862,2.859c0.439,0.005,1.182,0.236,1.2-0.495
		C122.716,97.478,121.963,97.673,121.531,97.7z"/>
	<path fill="#1D2D4A" d="M61.055,132.628c-0.262-2.342-0.774-4.637-1.326-6.923c-0.127-0.525-0.299-0.949-1.019-0.609
		c-4.9,2.312-9.812,4.6-14.719,6.896c0.029,0.156,0.058,0.311,0.087,0.467c5.394,0.426,10.787,0.854,16.181,1.278
		C61.119,133.804,61.122,133.225,61.055,132.628z"/>
	<path fill="#1D2D4A" d="M50.43,109.947c-0.827-0.846-1.273-0.689-1.921,0.195l-8.916,11.98c-0.517,0.698-1.208,1.299-1.451,2.264
		c0.27,0,0.509,0.064,0.693-0.009c5.611-2.227,11.212-4.48,16.827-6.697c1.098-0.434,0.762-1,0.288-1.653
		C54.333,113.797,52.347,111.906,50.43,109.947z"/>
	<path fill="#1D2D4A" d="M43.741,103.47c-2.725-1.953-5.828-3.052-8.974-4.071c-0.978-0.317-1.023,0.382-1.103,0.982
		c-0.726,5.432-1.433,10.866-2.146,16.3c-0.184,0.432-0.48,0.889-0.095,1.318c0.15,0.167,0.375-0.057,0.474-0.264h0
		c3.993-4.156,7.966-8.332,11.997-12.451C44.67,104.491,44.557,104.055,43.741,103.47z"/>
	<path fill="#1D2D4A" d="M60.686,140.721c-1.692-0.284-3.388-0.549-5.083-0.822c-0.015,0.128-0.031,0.256-0.046,0.384
		c1.508,0.705,3.014,1.414,4.524,2.113c0.443,0.205,0.931,0.571,1.146-0.272C61.384,141.514,61.632,140.88,60.686,140.721z"/>
	<path fill="#1D2D4A" d="M27.476,98.41c-1.216-0.175-2.434-0.33-3.652-0.493c-0.094-0.006-0.177-0.004-0.256,0.002
		c-0.605,0.047-0.762,0.448-0.791,0.951c-0.007,0.12-0.007,0.246-0.003,0.374v0c0.829,3.222,1.755,6.411,3.233,9.95
		c0.87-3.6,1.601-6.695,2.375-9.779C28.603,98.54,28.04,98.491,27.476,98.41z"/>
</g>
</svg>
