<?xml version="1.0" encoding="utf-8"?>
<!-- Generator: Adobe Illustrator 17.0.2, SVG Export Plug-In . SVG Version: 6.00 Build 0)  -->
<!DOCTYPE svg PUBLIC "-//W3C//DTD SVG 1.1//EN" "http://www.w3.org/Graphics/SVG/1.1/DTD/svg11.dtd">
<svg version="1.1" id="Layer_1" xmlns="http://www.w3.org/2000/svg" xmlns:xlink="http://www.w3.org/1999/xlink" x="0px" y="0px"
	 width="960px" height="560px" viewBox="0 0 960 560" enable-background="new 0 0 960 560" xml:space="preserve">
<g>
	<path fill="#FFFFFF" d="M511.365,345.083C626.406,321.737,685.02,192.953,626.931,91.168c-2.615-4.582-2.217-5.315,3.269-5.627
		c2.52-0.144,11.061-0.908,12.612-4.419c-4.476-0.219-14.015-1.008-18.21-0.488c-3.075,0.381-4.844-0.92-6.701-3.369
		c-42.869-56.56-99.619-81.068-169.764-69.857c-93.651,14.968-156.53,105.094-140.128,198.432
		C324.782,301.3,416.763,364.281,511.365,345.083z M319.998,209.052c-0.119-0.283-0.21-0.557-0.255-0.817
		c-1.809-5.798-1.545-5.849,4.041-5.68c4.718,0.022,9.436,0.098,14.153,0.047c2.861-0.031,4.001,0.732,3.23,3.973
		c-3.014,12.673-5.769,25.408-8.888,39.311C326.393,233.451,322.046,221.652,319.998,209.052z M344.499,266.515
		c-4.488-4.515-5.848-9.352-4.624-15.759c2.742-14.348,4.656-28.859,6.717-43.33c0.377-2.649,0.944-3.717,3.895-3.211
		c13.014,2.233,24.212,7.853,33.616,17.151c1.386,1.37,1.112,2.075-0.02,3.27C370.868,238.575,357.69,252.548,344.499,266.515z
		 M355.924,281.97c-1.352-1.337-0.747-2.332,0.079-3.546c11.029-16.222,22.038-32.458,33.042-48.698
		c0.897-1.325,1.528-2.571,3.396-0.857c9.235,8.472,17.815,17.484,24.303,28.304c0.312,0.52,0.573,1.07,0.824,1.543
		c-0.032,1.346-1.127,1.323-1.92,1.648c-18.527,7.615-37.078,15.173-55.554,22.908C357.939,284.174,357.154,283.187,355.924,281.97z
		 M416.619,325.399c-8.627-3.494-16.853-7.748-24.721-12.706c-1.25-0.788-2.718-1.343-3.533-2.943
		c12.472,1.487,24.719,3.029,36.992,4.34c2.427,0.259,2.923,1.083,2.911,3.37C428.199,329.86,428.005,330.011,416.619,325.399z
		 M425.709,308.575c-15.827-2.164-31.673-4.191-47.481-6.482c-3.445-0.499-5.441-3.617-8.257-6.06
		c9.862-5.366,19.451-10.581,29.037-15.801c6.536-3.56,13.131-7.019,19.572-10.745c2.604-1.506,3.791-1.461,4.801,1.706
		c3.649,11.446,4.633,23.221,4.992,35.118C428.439,308.522,427.582,308.831,425.709,308.575z M565.939,310.526
		c0-21.406,0.002-42.238-0.005-63.069c0-1.56-0.195-2.968,2.213-2.998c2.398-0.03,2.23,1.323,2.229,2.907
		c-0.016,19.332-0.061,38.665,0.043,57.997C570.435,308.293,568.675,309.229,565.939,310.526z M574.182,304.862
		c0-19.768,0.013-38.663-0.021-57.557c-0.003-1.739,0.146-2.856,2.391-2.843c2.163,0.012,2.015,1.223,2.014,2.652
		c-0.013,17.391-0.072,34.782,0.053,52.172C578.64,302.237,576.759,303.084,574.182,304.862z M581.98,298.696
		c0-17.777,0.004-34.691-0.008-51.606c-0.001-1.42-0.162-2.635,2.009-2.625c2.159,0.01,2.46,0.961,2.454,2.782
		c-0.05,15.09-0.085,30.181,0.019,45.27C586.474,295.5,584.501,296.636,581.98,298.696z M594.02,285.707
		c0.008,2.745-2.068,3.793-4.464,5.9c0-15.492,0.019-30.073-0.025-44.654c-0.005-1.68,0.404-2.439,2.268-2.481
		c1.907-0.043,2.238,0.739,2.232,2.406C593.98,259.822,593.981,272.764,594.02,285.707z M584.127,220.841
		c-9.825,0-17.72-7.942-17.596-17.701c0.121-9.549,7.983-17.262,17.598-17.265c9.873-0.003,17.643,7.858,17.519,17.724
		C601.527,213.282,593.846,220.841,584.127,220.841z M597.796,283.237c0-12.867,0.043-24.541-0.04-36.213
		c-0.015-2.067,0.775-2.516,2.664-2.547c2.311-0.038,1.853,1.465,1.855,2.744c0.016,9.579-0.058,19.159,0.046,28.737
		C602.354,278.991,600.278,280.44,597.796,283.237z M636.759,154.354c0.271,0.029,0.686,1.407,0.549,2.059
		c-0.485,2.306-2.169,0.47-3.573,0.97C634.143,155.323,634.973,154.161,636.759,154.354z M637.286,169.038
		c-0.198,3.248-1.45,4.612-4.019,5.189c-5.774,1.296-5.759,1.365-9.734,4.928c0.15-7.08,1-8.006,7.494-8.179
		C633.111,170.921,635.057,170.473,637.286,169.038z M614.995,146.197c4.95-4.239,11.787-0.843,16.721-5.593
		C631.317,148.372,628.797,146.623,614.995,146.197z M607.684,91.43c7.712-1.285,9.418,4.755,12.077,9.682
		c0.507,0.939,1.401,1.985,0.716,2.915c-0.71,0.963-1.978,0.352-2.994,0.088c-7.662-1.994-15.406-3.392-23.449-3.535
		c4.116,11.769,16.325,19.271,16.05,33.508c5.263-3.665,10.161-7.182,15.193-10.495c1.083-0.713,2.618-3.417,3.81-0.966
		c1.006,2.069,3.92,4.951-0.273,7.343c-5.964,3.402-11.588,7.336-16.794,11.834c-3.458,2.988-3.632,9.272-0.959,12.985
		c3.418,4.747,7.552,5.982,13.138,3.409c0.114,3.841-2.007,4.663-4.781,5.099c-1.628,0.256-4.034-0.322-4.265,2.35
		c-0.216,2.501-0.885,5.272,2.425,6.58c3.282,1.297,4.171,3.709,3.941,7.221c-0.357,5.437-0.094,10.915-0.094,17.273
		c5.455-5.087,10.502-9.794,15.549-14.501c0.555-1.094,1.417-2.056,1.796-0.117c0.3,1.533,0.428,3.354-0.798,4.781
		c-4.765,5.337-9.427,10.771-14.345,15.963c-2.056,2.17-2.912,4.398-2.746,7.341c0.206,3.651-0.218,7.347,0.102,10.982
		c0.785,8.921-0.548,17.252-5.853,24.696c-1.974,2.77-1.231,5.957-0.885,8.888c0.577,4.89-0.475,9.034-5.001,13.379
		c1.727-11.24-3.689-22.461,5.27-31.712c1.814-1.873,2.217-4.123,2.201-6.7c-0.095-15.11-0.151-30.222,0.035-45.33
		c0.041-3.333-0.663-5.964-3.282-7.978c-2.546-1.958-3.496-4.538-2.972-7.625c0.574-3.377-0.775-5.866-3.253-7.972
		c-2.086-1.773-3.29-3.951-2.91-6.811c2.205-16.619-3.467-30.911-12.548-44.437c-2.941-4.38-6.708-8.748-6.127-14.858
		c0.197-2.068,0.804-2.845,2.649-3.891c5.536-3.141,10.822-3.119,16.326-0.234C605.559,91.068,606.734,91.588,607.684,91.43z
		 M319.593,145.257c0.996-1.125,2.255-0.802,3.332-0.163c3.638,2.156,6.658,5.256,10.627,7.183
		c-5.815,1.551-9.374-3.204-14.029-4.971C318.896,147.068,319.075,145.843,319.593,145.257z M391.13,153.266
		c-1.916-1.678-3.43-3.815-5.123-5.747c-0.833-0.44-1.666-0.879-2.819-1.488c1.724-0.574,2.926-0.704,3.968,0.359
		c4.37,1.429,6.909,6.358,12.533,5.996C396.737,155.952,393.853,155.651,391.13,153.266z M407.677,172.78
		c-9.313,6.301-10.66-5.266-16.201-7.516C398.58,164.04,400.775,173.434,407.677,172.78z M372.255,131.482
		c-1.356-2.773-3.595-3.834-6.473-4.553c7.762-3.155,10.473,6.758,17.936,5.807C378.234,137.272,374.865,136.82,372.255,131.482z
		 M381.211,158.091c-3.19,1.068-5.636-0.139-7.947-1.759c-2.281-1.6-4.627-2.936-7.997-2.751c4.242-4.544,5.837-4.586,9.452-0.637
		c0.924,1.009,1.78,2.11,2.835,2.96C378.572,156.722,379.808,157.27,381.211,158.091z M372.383,141.021
		c-2.951,2.814-5.734,2.872-8.426,0.322c-2.296-2.175-4.626-3.911-8.192-2.859c2.329-4.554,4.773-5.056,8.35-2.034
		C368.539,140.187,368.539,140.187,372.383,141.021z M357.644,144.402c-2.866,4.526-5.705,5.125-9.057,2.743
		c-2.747-1.952-5.519-3.614-9.542-2.345c2.174-4.162,5.184-5.223,8.171-2.978C350.224,144.084,353.159,145.332,357.644,144.402z
		 M330.328,128.988c3.242-4.116,4.849-4.379,8.279-1.334c2.463,2.186,4.648,4.714,9.104,5.676
		C340.082,135.535,336.467,128.444,330.328,128.988z M318.826,160.892c2.828-0.582,5.66-1.272,8.524-1.528
		c17.556-1.566,33.403,4.055,48.465,12.204c26.484,14.329,48.77,33.926,68.534,56.399c12.306,13.993,25.93,25.842,44.183,31.148
		c20.857,6.063,40.698,2.072,60.004-6.569c1.9-0.85,2.215-2.143,2.162-3.975c-0.071-2.448-1.402-4.292-2.611-6.211
		c-0.069-0.11-0.789,0.019-1.055,0.229c-2.736,2.151-5.82,1.326-8.805,0.999c-2.007-0.22-3.814-0.066-5.523,2.005
		c-0.36-3.165,0.513-4.714,3.25-4.844c1.37-0.065,2.745-0.007,4.118,0.004c5.657,0.045,5.39,0.033,5.175-5.535
		c-0.287-7.437-0.071-14.894-0.071-22.377c-2.109-0.412-3.322,1.014-4.701,1.752c-18.352,9.826-36.665,9.852-55.019,0.03
		c-14.859-7.952-26.919-19.399-38.757-31.093c-15.414-15.226-30.069-31.226-46.557-45.352c-12.56-10.76-26.259-19.274-42.884-22.158
		c-8.828-1.532-17.606-1.405-26.321,0.76c-1.038,0.258-2.031,0.677-2.917,0.364c0.836-8.23,6.627-9.736,13.474-10.086
		c23.37-1.195,43.602,6.959,61.932,20.706c11.272,8.454,21.007,18.587,30.814,28.645c12.134,12.444,23.29,25.901,37.195,36.532
		c14.713,11.248,30.618,19.419,49.848,18.619c7.014-0.292,13.479-2.131,19.156-6.487c1.845-1.416,2.92-2.913,2.863-5.305
		c-0.057-2.436,0.436-4.905,0.209-7.314c-0.67-7.102,1.185-13.196,6.443-18.161c1.389-1.312,2.135-2.955,1.812-4.934
		c-0.841-5.15,1.002-9.574,3.801-13.691c2.137-3.144,3.188-6.516,2.702-10.32c-1.167-9.135,1.216-17.279,6.068-25.084
		c3.907-6.285,6.943-13.111,10.624-20.194c-3.942,0-7.355,0-11.19,0c0.718-2.369,1.307-4.311,1.876-6.188
		c-2.276-1.321-3.294,5.297-5.841,0.653c-3.975,1.943-2.904-2.301-4.163-3.601c-1.555,0.277-1.168,2.096-2.341,2.505
		c-0.166-0.178-0.468-0.35-0.486-0.549c-0.315-3.342-0.649-6.683-0.867-10.032c-0.179-2.744-1.1-5.847,2.836-6.981
		c0.356-0.103,0.658-0.628,0.853-1.022c2.054-4.162-4.18-14.417-8.956-14.61c-5.364-0.217-10.655,0.734-15.92,1.535
		c-2.334,0.355-2.719-0.182-3.021-2.349c-1.006-7.222-1.113-7.287-8.232-8.189c-1.704-0.216-2.108-0.82-2.549-2.4
		c-1.47-5.266-5.786-7.362-10.586-4.739c-3.836,2.096-7.501,1.942-11.458,1.197c-2.539-0.478-5.125-1.047-7.683-1.013
		c-6.621,0.087-8.429,1.868-8.636,8.422c-0.084,2.651,0.06,4.826-3.708,4.165c-2.234-0.392-3.296,1.203-3.627,3.234
		c-0.2,1.225-0.216,2.699-1.981,2.329c-1.528-0.32-0.826-1.751-0.784-2.677c0.394-8.75,0.182-9.177-8.924-12.111
		c-1.569-0.505-1.14-1.535-1.439-2.407c-2.115-6.182-5.847-11.424-14.403-6.982c-2.994,1.555-6.241,1.062-9.431,0.798
		c-3.953-0.327-7.901-0.798-11.861-0.942c-7.745-0.281-11.165,3.048-10.487,10.727c0.318,3.597-0.197,5.385-4.192,4.974
		c-3.066-0.315-4.549,1.263-5.421,4.254c-1.612,5.529-1.838,11.125-1.604,16.768c0.325,7.858-0.727,15.503-2.958,23.019
		c-0.344,1.159-0.594,2.366-0.71,3.568c-0.59,6.129-0.631,6.185-7.892,6.56c0.831-2.605,1.621-5.083,2.627-8.235
		c-2.022,1.601-3.432,2.716-4.841,3.832c-1.241,1.091-0.892-0.237-0.976-0.689c-0.147-0.795,0.326-1.808-0.873-2.178
		c-5.546,4.595-0.67-4.701-4.552-2.327c-0.682,0.369-0.632,2.352-2.374,3.254c-0.791-1.829-1.548-3.58-2.306-5.33
		c-0.965,0.216-0.579,1.186-0.962,1.726c0.227,4.622-0.678,5.5-4.861,3.9c-7.868-3.01-15.189-6.971-21.429-12.812
		c-2.916-2.729-3.477-4.8-0.726-8.292c36.811-46.712,84.667-69.15,144.142-64.371c45.28,3.638,82.041,24.428,110.983,59.263
		c0.779,0.937,1.491,1.931,2.209,2.917c0.139,0.191,0.158,0.468,0.539,1.687c-6.566-4.643-13.19-4.795-20.123-3.536
		c-2.151,0.391-2.994,1.01-2.648,3.069c2.419,14.361-3.063,26.509-10.831,37.912c-6.756,9.916-10.115,20.599-8.402,32.636
		c0.39,2.742-0.553,5.101-2.039,7.275c-2.559,3.744-4.133,7.74-3.717,12.381c0.233,2.598-0.741,4.769-2.696,6.495
		c-2.953,2.607-3.689,5.85-3.686,9.759c0.013,14.648-0.279,29.298-0.562,43.945c-0.055,2.831,0.221,5.462,2.032,7.724
		c3.027,3.781,3.59,8.066,3.483,12.82c-0.47,20.902-0.697,41.809-0.898,62.716c-0.024,2.545-0.623,4.042-3.082,5.307
		c-36.651,18.859-74.976,23.157-114.967,13.577c-1.986-0.476-3.263-0.907-2.484-3.584c0.842-2.895,0.936-6.008,1.37-9.024
		c0.013-0.092,0.176-0.163,0.269-0.243c6.192,6.077,12.873,6.852,18.111,2.099c4.53-4.11,5.078-11.395,1.214-16.139
		c-4.698-5.767-11.39-5.673-19.414,0.442c-0.709-13.328-1.36-26.531-6.426-39.473c4.124,0.621,8.239,2.024,12.193-0.165
		c3.919-2.17,6.068-5.509,6.423-9.909c0.451-5.588-3.616-10.797-9.19-12.012c-6.816-1.486-11.841,1.919-14.698,10.319
		c-6.848-11.731-15.683-21.465-25.977-31.009c4.663-0.043,8.157-1.112,10.732-4.208c1.819-2.187,2.824-4.671,2.848-7.531
		c0.048-5.709-4.071-10.641-9.687-11.598c-6.219-1.06-10.879,1.843-13.359,8.324c0.02,1.89,0.044,3.779,0.045,5.668
		c0,0.084-0.259,0.262-0.312,0.235c-0.19-0.1-0.343-0.27-0.51-0.414c-9.977-8.834-21.182-15.26-35.01-17.534
		c2.506-3.085,5.598-5.443,5.894-9.53c0.294-4.065-0.676-7.553-3.721-10.334c-4.27-3.9-11.048-4.017-15.497-0.309
		c-4.956,4.13-5.418,10.202-0.952,17.869c-7.08,0-13.816-0.034-20.552,0.021c-2.015,0.016-1.554-1.416-1.708-2.527
		c-0.233-1.68,0.756-2.066,2.174-2.11c3.051-0.094,6.099-0.301,9.15-0.36c2.124-0.041,3.443-0.46,3.095-3.131
		c-1.259-9.664,10.419-17.216,18.613-16.062c9.613,1.353,16.3,10.106,14.281,20.249c-0.604,3.038,0.22,3.804,2.77,4.618
		c6.765,2.159,12.354,6.485,18.426,10.605c2.237-8.154,9.168-9.251,16.345-10.675c-3.992-4.358-8.468-7.607-12.984-10.763
		c-17.935-12.532-37.514-20.104-59.754-19.325c-3.191,0.112-6.362,0.712-9.553,0.93c-0.973,0.066-2.671,1.564-2.88-0.487
		C316.762,163.803,316.19,161.435,318.826,160.892z M413.602,179.717c3.167-3.457,5.751-3.763,8.596-0.765
		c2.264,2.386,4.795,4.497,8.039,5.637C423.612,186.294,420.079,179.276,413.602,179.717z M434.671,199.85
		c-3.392,3.789-5.26,3.881-8.199,0.462c-1.674-1.946-3.184-4.033-4.768-6.057c-0.724-0.398-1.447-0.796-2.924-1.608
		c2.27-0.387,3.655-0.774,4.922,0.534C427.362,195.368,429.385,200.105,434.671,199.85z M416.063,166.862
		c-1.853-2.4-3.723-4.784-7.603-5.598c4.469-2.595,7.374-2.437,9.249,1.989c1.041,2.457,3.182,3.511,6.432,3.942
		C420.64,169.947,418.219,169.655,416.063,166.862z M444.757,198.619c-1.65-2.384-3.166-4.737-6.762-4.673
		c4.296-3.544,6.461-3.387,9.056,0.711c1.585,2.503,3.179,4.768,6.616,5.063C449.802,202.712,447.397,202.434,444.757,198.619z
		 M455.092,215.169c-5.351,4.091-7.05,3.946-10.415-0.447c-1.727-2.255-3.147-4.77-6.284-6.504
		C446.253,206.366,447.767,216.159,455.092,215.169z M466.604,216.063c0.007,0.031,0.017,0.056,0.025,0.086
		c1.312,0.369,2.647,0.745,5.052,1.422c-2.908,0.694-4.45,0.901-5.052-1.422c-0.028-0.008-0.057-0.016-0.085-0.024
		c0-0.014-0.002-0.026-0.001-0.039c-2.029,0.846-2.957-0.806-4.08-1.903c-1.844-1.8-3.529-3.818-6.694-3.705
		c1.701-2.3,3.923-3.313,6.02-2.283c3.049,1.498,4.877,4.235,4.754,7.891C466.563,216.077,466.582,216.072,466.604,216.063
		l-0.06,0.062C466.544,216.125,466.603,216.063,466.604,216.063z M526.242,245.262c-4.649,7.767-10.304-1.699-16.139,2.083
		c1.984-5.214,4.577-5.465,7.809-4.115C520.52,244.319,522.998,246.081,526.242,245.262z M523.075,230.924
		c3.595-8.497,12.191-1.322,16.285-6.972c0.518,4.76-1.079,6.58-5.144,6.901C530.608,231.138,527.164,228.872,523.075,230.924z
		 M513.446,235.715c-2.563,1.873-5.148,1.276-7.665-0.159c-2.618-1.493-5.132-3.235-8.947-3.007
		c2.702-2.422,5.036-2.373,7.427-1.389c2.693,1.109,5.442,1.9,8.378,1.758c0.782-0.038,1.598-0.168,1.955,0.647
		C515.066,234.646,514.112,235.229,513.446,235.715z M507.73,253.827c-2.945,2.69-3.734,2.768-8.378,0.638
		c-2.743-1.258-5.432-2.622-8.928-2.716c2.485-3.936,5.076-4.119,8.243-1.789C501.309,251.905,503.925,254.033,507.73,253.827z
		 M498.797,238.805c-1.667,4.906-3.496,5.625-8.157,4.186c-3.169-0.978-5.7-3.676-10.04-3.225
		C487.052,233.993,492.818,242.829,498.797,238.805z M478.613,221.967c4.029-3.62,6.934-2.938,9.607-0.2
		c2.134,2.186,4.214,4.368,7.488,4.923C488.837,229.37,485.508,221.514,478.613,221.967z M479.128,233.222
		c-8.126,2.813-9.54-8.007-16.696-6.993c4.712-3.204,7.386-2.756,10.442,1.457C475.459,231.252,475.459,231.252,479.128,233.222z
		 M476.182,246.674c-6.525,0.791-7.53-7.726-13.809-8.683c4.997-2.771,7.232-2.296,9.654,1.613c0.797,1.286,1.398,2.692,2.162,4.001
		C474.844,244.728,475.603,245.789,476.182,246.674z M439.655,111.445c-10.45,2.174-10.128,2.154-10.754-8.059
		c-0.536-8.748,0.13-17.363,1.335-25.965c0.525-3.748,0.079-6.958-2.753-9.619c-1.934-1.818-1.352-2.751,1.064-3.054
		c0.149-0.019,0.29-0.095,0.437-0.133c14.069-3.656,14.119-3.565,14.537,10.832c0.253,8.708,0.572,17.302-3.81,25.389
		C437.959,104.07,438.064,107.897,439.655,111.445z M470.518,156.446c1.12,0.219,1.259,1.187,1.462,2.104
		c0.672,1.33,1.344,2.66,2.206,4.366c0.926-1.582,1.628-2.783,2.542-4.346c1.36,1.442,0.718,3.506,2.269,4.583
		c0.835-0.71,1.73-1.471,2.646-2.251c1.201,0.739,0.069,1.998,0.967,3.05c1.194-0.896,2.421-1.818,3.811-2.862
		c-2.111,7.867-7.513,10.814-15.083,8.227c-2.607-0.891-2.06-4.056-3.462-5.91c-0.22-0.291,0.923-0.372,1.494-0.297
		C471.638,161.235,469.449,158.658,470.518,156.446z M500.089,123.017c1.756,1.587,2.581,2.331,3.545,3.202
		c0.713-2.213,1.332-4.135,1.996-6.195c2.055,1.534,0.718,4.017,2.252,5.665c1.304-0.139,1.114-1.886,2.562-2.467
		c0.175,1.77,0.34,3.448,0.501,5.071c1.875,0.412,2.458-1.791,4.562-1.654c-1.898,2.652-1.554,6.502-6.367,6.488
		c-9.597-0.028-9.598,0.167-12.273-6.599C499.342,127.306,501.711,127.731,500.089,123.017z M505.564,70.126
		c-0.972,8.921-1.004,17.913-0.788,26.882c0.165,6.859,0.298,6.856-6.898,7.54c-3.435,1.444-3.998-0.622-4.364-3.877
		c-1.036-9.207-2.405-18.378-3.68-27.557c-0.73-5.258-0.031-6.251,5.279-7.458c1.478-0.336,2.886-0.998,4.369-1.293
		C504.772,63.313,506.129,64.942,505.564,70.126z M531.562,79.298c-0.114-1.609,0.41-2.569,1.867-3.175
		c1.83-0.762,3.826-1.929,5.641-1.036c1.911,0.94,1.053,3.256,0.985,4.922c-0.217,5.306-0.627,10.607-1.101,15.898
		c-0.174,1.938-0.462,4.05-2.94,4.567c-1.749,0.365-3.081,0.461-3.424-2.116c-0.542-4.076-0.87-8.132-0.988-12.233
		C531.603,83.847,531.722,81.562,531.562,79.298z M532.969,159.456c0.218,0.428,0.415,0.76,0.563,1.113
		c0.643,1.531-1.604,4.323,2.282,4.678c0.58,0.053-0.127,3.799-2.388,4.032c-3.322,0.344-6.742,0.384-10.054-0.007
		c-2.916-0.344-2.344-3.47-3.138-5.4c-1.414-3.435,1.713-0.098,1.964-1.216c0.198-0.885,0.434-1.762,0.655-2.643
		c1.797-0.221,1.555,2.147,3.109,2.388c0.564-1.989,1.13-3.988,2.041-7.201c0.936,3.113,1.544,5.132,2.301,7.649
		C531.378,161.481,532.11,160.549,532.969,159.456z"/>
	<path fill="#FFFFFF" d="M508.696,451.102c7.003-2.7,11.505-7.361,11.658-15.234c0.149-7.633-3.47-13.091-10.225-16.414
		c-2.572-1.265-5.363-2.086-8.061-3.111c2.823-1.395,5.815-2.547,8.461-4.24c9.207-5.892,9.302-18.346,0.281-24.436
		c-3.195-2.157-6.722-3.472-10.563-3.994c-13.678-1.861-27.365-0.297-41.049-0.192c-1.8,0.014-2.36,0.699-2.357,2.441
		c0.003,1.675,0.409,2.576,2.266,2.527c4.909-0.128,7.884,2.062,7.983,7.203c0.298,15.537,0.487,31.075-0.097,46.612
		c-0.163,4.33-2.462,6.304-6.595,6.532c-1.865,0.103-3.717,0.06-3.546,2.884c0.177,2.928,2.307,1.899,3.7,1.909
		c11.589,0.077,23.178,0.038,34.767,0.046C499.942,453.637,504.389,452.762,508.696,451.102z M481.96,404.351
		c-0.212-3.646,0.24-7.343-0.126-10.964c-0.423-4.182,1.138-5.609,5.141-4.99c2.099,0.32,4.239,0.479,6.291,0.99
		c5.601,1.394,8.892,5.293,9.105,10.539c0.256,6.308-2.628,10.848-8.279,12.69c-3.655,1.191-8.005,2.382-11.11,0.694
		C480.306,411.856,482.14,407.441,481.96,404.351z M488.077,447.848c-3.457-0.362-5.711-2.06-5.812-5.743
		c-0.104-3.79-0.023-7.585-0.023-11.378c-0.11,0-0.221,0-0.331,0c0-0.152-0.044-0.32,0.006-0.453
		c1.308-3.478-2.975-9.329,2.078-10.496c10.374-2.397,17.536,1.603,19.76,9.113C507.197,440.51,500.093,449.105,488.077,447.848z"/>
	<path fill="#FFFFFF" d="M337.261,453.091c1.965,0.016,2.283-0.979,2.178-2.563c-0.086-1.295,0.421-2.769-1.832-2.825
		c-4.632-0.115-5.696-3.113-5.623-7.135c0.11-6.098,0.138-12.202,0.004-18.3c-0.221-10.033-3.709-15.224-11.829-17.13
		c-8.293-1.947-15.684-0.108-22.163,7.457c-0.105-2.054-0.176-2.805-0.176-3.556c-0.007-10.523-0.022-21.046,0.01-31.569
		c0.006-1.84,0.094-3.39-2.613-2.754c-6.066,1.424-12.159,2.744-18.263,3.995c-1.851,0.379-2.392,1.25-2.402,3.109
		c-0.011,2.05,0.925,2.79,2.694,2.776c4.512-0.036,5.633,2.697,5.627,6.556c-0.027,16.623-0.05,33.247,0.013,49.87
		c0.015,4.002-1.532,6.536-5.704,6.636c-2.396,0.058-2.612,1.207-2.61,3.153c0.001,2.339,1.407,2.268,3.02,2.264
		c8.083-0.021,16.166-0.009,24.249-0.01c1.363,0,2.908,0.255,2.783-1.913c-0.088-1.536,0.646-3.31-2.107-3.559
		c-3.555-0.322-4.702-2.912-4.698-6.174c0.006-5.49-0.053-10.981,0.034-16.47c0.044-2.781,0.844-5.404,2.411-7.745
		c2.545-3.804,8.148-6.198,11.982-4.799c4.39,1.602,4.75,5.594,4.822,9.46c0.119,6.403-0.056,12.812,0.066,19.215
		c0.072,3.78-1.269,6.331-5.245,6.594c-2.621,0.174-1.69,1.924-1.851,3.243c-0.186,1.534,0.462,2.178,2.062,2.169
		C320.485,453.036,328.874,453.021,337.261,453.091z"/>
	<path fill="#FFFFFF" d="M185.267,378.196c-0.036-2.888-1.554-2.697-3.479-2.691c-10.984,0.032-21.968,0.007-32.953,0.024
		c-1.855,0.003-3.802-0.663-3.809,2.723c-0.006,3.305,1.886,2.725,3.762,2.856c6.566,0.459,8.269,2.253,8.278,8.789
		c0.016,11.9,0.005,23.799,0.005,35.699c-0.016,0-0.033,0-0.049,0c0,12.509,0.153,25.021-0.053,37.528
		c-0.141,8.563-5.133,12.574-13.433,11.262c-2.548-0.403-4.106-1.397-3.334-4.621c1.158-4.833-0.992-7.928-5.446-8.666
		c-4.784-0.793-8.454,1.883-9.135,6.659c-0.696,4.877,1.991,9.056,7.47,11.166c7.401,2.851,14.951,2.668,22.402,0.3
		c12.061-3.833,18.004-12.228,18.104-25.943c0.154-21.052,0.032-42.106,0.064-63.159c0.01-6.431,1.816-8.41,8.278-8.978
		C183.933,380.968,185.302,380.976,185.267,378.196z"/>
	<path fill="#FFFFFF" d="M703.144,453.616c1.11-0.005,2.692,0.485,2.617-1.511c-0.047-1.237,0.646-2.805-1.344-3.38
		c-1.682-0.486-2.783-1.801-3.799-3.149c-4.675-6.202-9.284-12.454-14.049-18.586c-1.478-1.902-0.801-2.761,0.886-3.877
		c3.932-2.603,7.686-5.571,12.491-6.36c2.163-0.355,2.081-1.67,2.122-3.269c0.057-2.183-1.393-1.933-2.76-1.933
		c-5.489,0.001-10.978-0.005-16.467,0.004c-1.336,0.002-2.773-0.326-2.826,1.883c-0.045,1.856,0.316,2.853,2.437,2.728
		c1.006-0.059,2.381,0.133,2.719,1.233c0.459,1.494-1.091,2.061-2.005,2.703c-4.472,3.136-9.02,6.164-14.408,9.819
		c0-2.253,0-3.735,0-5.216c0-12.808,0.034-25.616-0.052-38.423c-0.009-1.309,1.153-3.959-1.972-3.368
		c-5.821,1.101-11.596,2.443-17.383,3.718c-1.861,0.41-1.523,1.947-1.625,3.297c-0.118,1.565,0.454,2.188,2.065,2.112
		c4.572-0.216,5.52,2.501,5.489,6.463c-0.113,14.484-0.064,28.97-0.032,43.455c0.008,3.723-0.712,6.764-5.301,6.895
		c-1.783,0.051-2.207,1.074-2.24,2.711c-0.041,2.056,1.149,2.089,2.643,2.083c7.166-0.03,14.333-0.002,21.499-0.023
		c1.282-0.004,2.828,0.451,2.84-1.819c0.009-1.781-0.334-2.967-2.398-3.006c-2.617-0.05-3.276-1.928-3.419-4.024
		c-0.156-2.276,0.017-4.575-0.137-6.852c-0.208-3.082,2.47-3.671,4.248-4.738c2.209-1.326,2.548,1.356,3.442,2.419
		c2.447,2.912,4.704,5.987,6.972,9.045c1.372,1.85,2.132,3.778-1.23,4.109c-2.307,0.227-2.11,1.672-2.109,3.222
		c0.003,2.35,1.777,1.618,2.96,1.628C689.726,453.661,696.435,453.647,703.144,453.616z"/>
	<path fill="#FFFFFF" d="M418.713,453.093c1.991,0.018,2.278-1.003,2.141-2.566c-0.108-1.236,0.563-2.801-1.79-2.795
		c-5.427,0.014-6.347-3.712-6.355-8.057c-0.011-6.558,0.028-13.117-0.012-19.675c-0.055-8.975-5.646-14.618-14.611-15.448
		c-7.729-0.715-13.879,2.145-19.408,8.16c-0.19-2.496-0.361-4.127-0.427-5.763c-0.083-2.064-1.069-2.503-2.978-2.056
		c-5.627,1.318-11.277,2.541-16.929,3.749c-1.891,0.404-2.691,1.229-2.71,3.383c-0.022,2.502,1.384,2.785,3.114,2.788
		c4.317,0.008,5.371,2.589,5.334,6.293c-0.062,6.253-0.134,12.509,0.024,18.759c0.117,4.624-1.143,7.913-6.44,7.863
		c-2.208-0.021-1.915,1.32-1.944,2.692c-0.032,1.485,0.006,2.684,2.076,2.668c8.693-0.064,17.387-0.047,26.08-0.007
		c1.503,0.007,2.398-0.45,2.151-2.061c-0.194-1.265,0.961-3.186-1.734-3.317c-4.446-0.215-5.349-3.454-5.437-7.037
		c-0.117-4.725-0.146-9.459,0.027-14.181c0.129-3.529,1.039-6.922,3.059-9.912c2.485-3.678,7.113-5.506,11.224-4.228
		c4.166,1.296,4.67,4.909,4.734,8.492c0.121,6.861-0.021,13.726,0.059,20.588c0.041,3.559-1.187,6.041-5.02,6.26
		c-2.491,0.142-1.92,1.78-2,3.217c-0.085,1.535,0.586,2.179,2.151,2.173C401.631,453.04,410.172,453.017,418.713,453.093z"/>
	<path fill="#FFFFFF" d="M225.533,454.748c12.311,1.364,23.911-4.121,28.672-13.644c7.874-15.752-1.524-37.136-24.834-36.597
		c-1.825,0.086-3.676,0.004-5.47,0.284c-20.181,3.148-26.96,17.736-21.741,33.825C205.634,449.332,214.835,453.564,225.533,454.748z
		 M217.724,417.466c1.249-5.176,4.902-7.667,10.419-7.798c5.986-0.143,9.528,2.074,11.275,7.283c1.365,4.07,1.776,8.302,1.68,12.588
		c-0.063,4.26-0.197,8.533-1.661,12.585c-1.946,5.388-5.785,7.776-11.652,7.49c-5.471-0.266-8.63-2.647-10.052-8.224
		C215.709,433.452,215.809,425.401,217.724,417.466z"/>
	<path fill="#FFFFFF" d="M634.889,443.258c-1.798-0.849-3.059,0.014-3.658,2.114c-0.432,1.515-1.736,2.633-3.511,2.19
		c-1.721-0.429-2.299-1.936-2.328-3.534c-0.069-3.81-0.022-7.623-0.022-11.435c-0.058,0-0.116,0-0.175,0
		c0-3.051,0.027-6.103-0.006-9.153c-0.071-6.502-3.082-10.69-9.344-12.386c-6.878-1.862-13.841-1.679-20.776-0.091
		c-4.003,0.916-7.447,2.744-9.651,6.315c-1.423,2.304-2.016,4.924-0.369,7.325c1.296,1.89,3.47,2.379,5.704,2.148
		c3.052-0.316,4.664-2.359,4.988-5.126c0.787-6.727,5.71-7.88,11.551-6.563c3.823,0.862,4.315,4.145,4.774,7.456
		c0.506,3.647-2.416,3.275-4.333,3.957c-3.003,1.07-6.119,1.819-9.134,2.859c-4.929,1.7-9.679,3.786-13.04,8.015
		c-5.588,7.031-2.774,15.122,5.898,17.182c6.895,1.638,12.954-0.563,18.532-4.289c2.044-1.366,2.795-1.396,4.377,0.72
		c2.907,3.887,7.225,4.648,11.91,3.846c4.484-0.768,7.605-3.165,8.82-7.535C635.425,446.092,636.874,444.195,634.889,443.258z
		 M612.03,437.251c0.001,6.506-2.607,9.683-8.507,10.41c-2.275,0.281-4.292-0.194-5.696-2.094c-1.405-1.903-1.311-3.942-0.266-6.034
		c2.683-5.369,7.966-6.686,12.991-8.391c1.386-0.47,1.452,0.599,1.469,1.533C612.05,434.2,612.029,435.725,612.03,437.251z"/>
	<path fill="#FFFFFF" d="M834.11,412.928c-0.107-1.838-1.707-1.346-2.824-1.36c-3.658-0.047-7.318-0.044-10.977-0.004
		c-1.262,0.014-2.885-0.513-2.887,1.772c-0.001,1.619-0.019,2.935,2.1,3.322c3.711,0.678,3.574,3.179,2.297,5.845
		c-2.759,5.76-5.625,11.468-8.866,18.044c-4.153-7.245-7.957-13.777-11.642-20.376c-1.09-1.952-0.809-3.572,1.9-3.786
		c1.819-0.144,2.579-0.958,2.468-2.925c-0.145-2.568-1.928-1.876-3.285-1.887c-6.25-0.051-12.502-0.048-18.752,0.001
		c-1.085,0.009-2.735-0.597-2.852,1.282c-0.083,1.343-0.828,3.196,1.52,3.648c2.219,0.427,3.124,2.243,4.109,3.973
		c6.023,10.569,12.053,21.133,18.078,31.7c0.751,1.317,1.65,2.591,0.852,4.243c-2.425,5.018-5.131,9.708-11.059,11.367
		c-1.73,0.484-3.437,1.236-4.983,2.154c-2.096,1.245-2.497,3.397-2.097,5.617c0.393,2.188,1.964,3.363,4.065,3.812
		c3.414,0.73,6.288-0.249,8.68-2.788c2.447-2.596,3.891-5.806,5.428-8.932c7.376-14.999,14.684-30.031,21.994-45.062
		c1.21-2.487,2.335-5.012,5.317-5.863C834.884,416.1,834.19,414.303,834.11,412.928z"/>
	<path fill="#FFFFFF" d="M563.416,449.004c-4.867,0.023-5.529-3.2-5.502-7.092c0.063-9.149,0.02-18.299,0.02-27.449
		c0-9.607-0.071-19.215,0.048-28.821c0.031-2.539-0.719-3.188-3.173-2.621c-5.335,1.233-10.695,2.399-16.093,3.306
		c-2.132,0.358-2.789,1.167-2.762,3.236c0.029,2.278,1.518,2.426,3.049,2.411c4.196-0.041,5.541,2.232,5.523,6.09
		c-0.07,14.639-0.116,29.279,0.01,43.917c0.038,4.37-1.205,7.22-6.058,7.077c-2.119-0.062-2.544,0.923-2.498,2.77
		c0.056,2.243,1.612,1.791,2.892,1.794c8.082,0.022,16.164-0.007,24.246,0.028c1.52,0.007,2.642-0.057,2.593-2.108
		C565.67,449.855,565.235,448.995,563.416,449.004z"/>
	<path fill="#FFFFFF" d="M764.783,448.199c0.676-0.847,2.616-1.868,0.605-3.275c-1.366-0.956-2.363-2.404-4.463-0.232
		c-4.854,5.021-11.048,6.559-17.591,3.907c-6.48-2.627-7.256-8.833-8.045-14.817c-0.253-1.921,0.386-2.78,2.462-2.73
		c4.421,0.108,8.847,0.033,13.271,0.032c4.271-0.001,8.552-0.174,12.811,0.057c3.091,0.168,3.551-1.019,3.052-3.749
		c-1.93-10.556-8.496-16.496-19.692-17.573c-11.558-1.112-22.121,5.805-25.362,16.609c-3.066,10.222,1.253,20.836,10.479,25.751
		C743.293,458.027,758.387,456.218,764.783,448.199z M740.574,415.664c3.182-1.594,6.496-1.544,9.526,0.374
		c2.961,1.875,3.673,5.023,4.038,8.262c0.204,1.811-0.986,1.912-2.291,1.907c-2.275-0.008-4.549-0.002-6.824,0
		c-0.91,0.002-1.836,0.11-2.727-0.02c-2.267-0.33-5.067,1.189-6.711-0.97C734.29,423.516,737.807,417.05,740.574,415.664z"/>
	<path fill="#FFFFFF" d="M340.937,518.221c2.765,1.137,4.758,2.433,4.199,5.813c-0.422,2.555-1.569,4.252-3.96,5.056
		c-4.645,1.563-9.57-0.57-11.316-5.165c-1.896-4.99-2.056-10.132-0.105-15.186c1.303-3.376,3.667-5.522,7.433-5.891
		c3.864-0.379,6.729,1.148,9.035,4.214c0.942,1.252,0.832,4.139,2.558,3.65c1.884-0.534,0.59-3.138,0.849-4.812
		c0.068-0.439-0.077-0.908-0.101-1.364c-0.153-2.959-0.196-3.034-2.664-1.535c-1.378,0.837-1.862-0.474-2.67-0.877
		c-6.092-3.033-12.547-2.365-17.462,1.898c-4.993,4.331-6.692,11.486-4.256,17.925c2.449,6.473,7.288,9.753,14.382,9.906
		c4.32,0.094,8.367-1.606,12.632-1.758c1.996-0.071,2.013-1.335,2.035-2.811c0.049-3.411-1.143-7.219,3.37-9.473
		C349.944,517.556,345.54,516.961,340.937,518.221z"/>
	<path fill="#FFFFFF" d="M595.886,522.475c-2.206,5.72-5.304,7.662-11.095,6.622c-5.783-1.039-2.803-5.747-3.553-8.891
		c-0.034-0.144-0.038-0.313,0.001-0.455c0.311-1.132-0.888-3.121,1.436-3.118c1.857,0.003,3.99-0.828,5.473,1.241
		c0.542,0.755-0.264,2.616,1.453,2.271c1.724-0.346,0.837-2.011,0.918-3.079c0.138-1.818,0.045-3.656,0.009-5.485
		c-0.012-0.594-0.066-1.237-0.892-1.324c-0.72-0.076-1.108,0.228-1.182,0.962c-0.345,3.426-2.967,2.824-5.183,2.896
		c-0.919,0.03-2.029-0.024-1.975-1.264c0.136-3.14-0.983-6.499,0.61-9.357c0.915-1.642,9.543,0.011,11.088,1.558
		c0.99,0.992,0.405,3.871,2.474,3.034c1.583-0.641,0.296-2.987,0.508-4.556c0.312-2.305-0.888-2.771-2.955-2.667
		c-3.193,0.161-6.404-0.04-9.602,0.063c-4.275,0.137-8.607-0.495-13.209,0.853c5.489,0.648,4.506,4.502,4.516,7.823
		c0.012,4.421-0.148,8.849,0.051,13.261c0.158,3.486,0.214,6.658-4.737,7.17c0.21,0.428,0.419,0.857,0.629,1.285
		c7.715,0,15.431,0,23.146,0c0.762,0,1.524-0.004,2.287-0.004c0.808,0,1.578-0.128,1.578-1.15c-0.001-2.868,0.918-5.835-0.654-8.919
		C596.44,521.862,596.025,522.115,595.886,522.475z"/>
	<path fill="#FFFFFF" d="M435.457,524.162c0.161-7.163,0.011-14.331,0.083-21.497c0.018-1.783-0.376-2.532-2.286-1.913
		c-2.307,0.748-5.06,0.121-6.902,2.253c-0.083,0.096,0.147,0.697,0.331,0.758c5.936,1.959,1.622,6.887,3.554,10.476
		c-1.332-0.279-1.649-0.286-1.91-0.409c-5.325-2.512-9.789-1.906-12.827,1.758c-2.752,3.319-2.857,8.636-0.243,12.344
		c2.702,3.833,6.941,4.942,12.158,3.189c0.757-0.254,1.246-1.052,2.374-0.308c3.081,2.03,6.025,0.041,9.257-0.427
		C435.609,529.281,435.394,526.97,435.457,524.162z M424.495,529.699c-3.254-0.081-5.255-3.077-5.224-7.817
		c0.031-4.705,1.818-7.17,5.183-7.148c3.927,0.025,5.318,2.047,5.313,7.72C429.763,527.612,428.177,529.791,424.495,529.699z"/>
	<path fill="#FFFFFF" d="M772.537,523.414c0.089-7.61,0.03-15.221,0.03-23.077c-2.856,0.552-5.374,1.081-7.909,1.512
		c-1.201,0.204-1.849,1.367-0.984,1.716c5.747,2.318,2.002,6.931,3.355,10.702c-1.06-0.322-1.501-0.402-1.896-0.583
		c-5.077-2.331-9.476-1.709-12.466,1.779c-2.823,3.292-3.013,8.554-0.445,12.331c2.657,3.908,7.023,5.13,12.095,3.382
		c0.705-0.243,1.837-0.909,2.041-0.692c3.099,3.295,6.319-0.46,9.699,0.132C772.162,529.216,772.503,526.324,772.537,523.414z
		 M761.887,529.672c-3.451,0.263-5.651-2.972-5.559-7.91c0.088-4.738,1.881-7.114,5.304-7.027c3.899,0.099,5.201,2.065,5.191,8.33
		C767.352,526.455,766.321,529.334,761.887,529.672z"/>
	<path fill="#FFFFFF" d="M203.055,501.779c4.379,1.309,4.133,3.68,2.169,6.621c-1.518,2.274-2.986,4.582-4.68,7.189
		c-1.43-2.312-2.793-4.308-3.94-6.421c-1.429-2.632-4.962-5.549,2.239-7.68c-6.342,0-11.032,0-16.722,0
		c1.96,1.3,3.271,1.73,3.857,2.632c3.147,4.842,6.534,9.599,9.016,14.78c2.128,4.442-0.078,9.274-5.087,11.933
		c5.893,0,10.866,0,16.715,0c-5.164-2.825-7.258-8.5-4.625-12.837c3.48-5.731,6.336-12.034,12.508-16.585
		C210.469,500.617,206.919,500.745,203.055,501.779z"/>
	<path fill="#FFFFFF" d="M520.674,502.504c0.183-2.04-1.395-1.584-2.517-1.587c-8.089-0.023-16.181,0.124-24.264-0.084
		c-2.983-0.077-4.268,0.756-3.677,3.748c0.303,1.534-1.006,3.979,0.859,4.443c2.188,0.545,1.143-2.204,1.875-3.353
		c1.979-3.109,4.977-2.797,7.771-2.473c2.912,0.338,1.402,2.948,1.475,4.469c0.22,4.568,0.12,9.154,0.066,13.732
		c-0.043,3.712,1.378,8.191-4.426,9.467c5.027,0,10.055,0,15.083,0c-5.086-1.316-4.412-5.253-4.432-8.788
		c-0.028-4.884-0.09-9.77,0.043-14.65c0.04-1.466-1.049-3.832,1.321-4.186c2.607-0.39,5.623-0.873,7.458,2.001
		c0.561,0.878,0.815,1.956,1.187,2.95c0.302,0.807,1.17,1.567,1.615,0.894C521.432,507.09,520.475,504.713,520.674,502.504z"/>
	<path fill="#FFFFFF" d="M268.497,524.057c0.047-2.892-0.046-5.788,0.031-8.679c0.044-1.634-0.313-2.599-2.233-2.499
		c-2.193,0.115-4.397,0.027-6.597,0.027c3.262,3.172,4.809,10.194,2.602,13.646c-1.106,1.73-2.635,3.194-4.879,2.667
		c-2.534-0.595-2.361-2.802-2.349-4.814c0.018-3.045,0.032-6.091-0.012-9.136c-0.014-0.957,0.432-2.313-1.281-2.336
		c-2.605-0.036-5.211-0.009-8.732-0.009c4.267,3.361,4.267,3.361,4.27,8.436c0.001,0.914-0.018,1.828,0.004,2.741
		c0.182,7.742,4.418,10.146,11.429,6.526c0.657-0.339,1.26-1.77,2.14-0.617c2.929,3.838,5.88,0.417,9.084,0.443
		C268.402,529.301,268.455,526.701,268.497,524.057z"/>
	<path fill="#FFFFFF" d="M707.659,528.521c-1.766-0.899-0.793-2.724-0.901-4.128c-0.164-2.125-0.035-4.27-0.1-6.405
		c-0.066-2.148-0.995-4.078-2.969-4.779c-3.966-1.409-8.064-1.503-12.018,0.246c-1.782,0.789-3.066,2.083-2.832,4.221
		c0.105,0.966,0.769,1.575,1.84,1.701c2.321,0.273,2.744-1.327,3.201-3.028c0.146-0.545,0.571-1.094,1.016-1.464
		c1.317-1.094,2.82-1.023,4.3-0.379c1.258,0.547,1.683,1.666,1.802,2.953c0.198,2.14-1.668,1.813-2.792,2.287
		c-1.957,0.825-4.04,1.372-5.94,2.3c-2.804,1.37-5.064,3.57-3.811,6.862c1.252,3.289,4.43,3.25,7.427,2.641
		c0.88-0.179,1.775-0.506,2.542-0.967c1.665-1.003,2.737-1.185,4.633,0.312c3.293,2.6,7.148,0.386,7.83-4.148
		C709.356,526.623,709.204,529.308,707.659,528.521z M697.542,528.697c-1.67,0.287-3.435-0.152-3.386-1.998
		c0.103-3.907,3.525-4.34,6.701-5.6C701.125,524.645,701.989,527.934,697.542,528.697z"/>
	<path fill="#FFFFFF" d="M677.037,523.207c-0.038-6.559,0.039-13.12-0.063-19.678c-0.016-1.056,0.984-3.225-1.555-2.848
		c-2.702,0.401-5.563,0.497-8.684,2.656c4.252,0.64,4.629,3.032,4.503,6.029c-0.199,4.721-0.122,9.457-0.028,14.184
		c0.06,3.018,0.397,6.049-3.92,7.01c4.557,0.955,8.714,1.013,13.308-0.03C676.123,529.374,677.054,526.06,677.037,523.207z"/>
	<path fill="#FFFFFF" d="M535.149,512.293c-6.809,0.004-11.307,3.888-11.342,9.795c-0.034,5.741,4.798,10.07,11.227,10.059
		c6.519-0.012,11.098-4.246,10.998-10.172C545.933,516.053,541.701,512.289,535.149,512.293z M539.584,526.57
		c-0.621,2.162-1.957,3.714-4.54,3.66c-2.429-0.051-3.936-1.077-4.594-3.507c-0.691-2.548-0.66-5.108-0.35-7.655
		c0.336-2.761,1.471-5.01,4.783-4.975c3.425,0.037,4.759,2.148,4.977,5.248c0.063,0.903,0.01,1.815,0.01,2.723
		c0.049,0.003,0.098,0.005,0.147,0.008C539.89,523.577,539.992,525.147,539.584,526.57z"/>
	<path fill="#FFFFFF" d="M227.571,512.294c-6.911,0.063-11.206,3.852-11.195,9.877c0.011,5.823,4.763,10.039,11.24,9.974
		c6.494-0.065,11.129-4.401,10.976-10.267C238.44,516.037,234.069,512.235,227.571,512.294z M230.863,528.849
		c-2.333,2.525-6.629,1.706-7.721-1.592c-0.562-1.697-0.685-3.54-0.993-5.242c0.334-1.776,0.439-3.474,0.989-5.014
		c1.136-3.182,5.547-3.996,7.839-1.566C233.064,517.647,232.988,526.549,230.863,528.849z"/>
	<path fill="#FFFFFF" d="M459.867,512.648c-4.334-0.964-8.296-0.237-11.286,3.142c-2.627,2.968-3.14,6.624-1.596,10.28
		c1.912,4.526,5.946,5.754,10.363,6.137c2.87-0.128,5.501-0.71,7.506-2.893c0.373-0.406,1.142-0.81,0.647-1.492
		c-0.499-0.689-1.154-0.752-1.869-0.067c-1.784,1.709-4.013,2.183-6.361,1.836c-3.843-0.568-4.97-3.674-4.837-6.733
		c0.138-3.162,3.109-1.183,4.766-1.543c1.458-0.316,3.047,0.031,4.563-0.094c1.433-0.118,3.503,0.84,4.157-0.642
		c0.74-1.677-0.437-3.523-1.548-5.013C463.242,514.053,461.746,513.066,459.867,512.648z M458.859,519.35
		c-2.083-0.072-4.171-0.015-6.35-0.015c0.015-2.755,0.865-4.685,3.518-5.185c1.974-0.372,3.5,0.424,4.331,2.357
		C461.039,518.094,461.426,519.439,458.859,519.35z"/>
	<path fill="#FFFFFF" d="M639.805,530.155c0.191,2.943,2.643,3.51,4.94,3.762c3.172,0.349,6.396,0.249,9.558,0.654
		c2.283,0.293,4.063,1.73,2.129,4.02c-2.459,2.914-6.137,2.16-9.436,1.941c-2.213-0.147-4.238-0.939-4.462-3.659
		c-0.077-0.94-0.061-2.073-1.308-1.866c-0.779,0.13-1.769,0.834-2.088,1.541c-0.983,2.176-0.172,4.057,1.997,4.804
		c4.998,1.722,10.109,2.066,15.101-0.067c2.953-1.262,4.417-3.537,3.985-6.881c-0.435-3.363-2.87-4.582-5.682-4.98
		c-2.699-0.381-5.481-0.133-8.213-0.339c-1.408-0.106-3.471-0.08-1.992-2.58c-0.021-0.321-0.043-0.643-0.064-0.964
		C641.421,525.764,639.611,527.163,639.805,530.155z"/>
	<path fill="#FFFFFF" d="M657.082,513.315c-0.934,1.124-1.8,0.436-2.784-0.001c-3.335-1.48-6.801-1.47-10.166-0.258
		c-2.413,0.869-4.023,2.745-4.313,5.38c-0.285,2.584,1.143,4.335,3.381,5.326c0.938,0.415,1.59,0.645,1.07,1.778
		c0.275,0.197,0.376,0.406,0.303,0.626c-0.074,0.226-0.154,0.339-0.239,0.339c2.07-0.419,4.138-0.853,6.211-1.254
		c7.796-1.509,8.971-3.441,6.526-10.763C657.075,514.097,657.079,513.706,657.082,513.315L657.082,513.315z M649.1,523.578
		c-3.232-0.022-3.737-2.576-3.726-5.103c0.011-2.488,0.96-4.629,3.864-4.496c2.94,0.134,3.277,2.609,3.551,4.797
		C652.613,521.268,652.034,523.598,649.1,523.578z"/>
	<path fill="#FFFFFF" d="M644.574,526.166c0.073-0.22-0.028-0.429-0.303-0.626c0.021,0.321,0.042,0.643,0.064,0.964
		C644.42,526.505,644.5,526.392,644.574,526.166z"/>
	<path fill="#FFFFFF" d="M285.715,512.722c-2.494,0.034-4.996,0.944-7.443,1.654c-0.451,0.131-0.354,1.327,0.287,1.427
		c5.085,0.794,3.07,4.756,3.315,7.557c0.266,3.045,0.792,6.518-3.788,7.341c4.557,0,9.114,0,13.671,0
		c-4.272-0.714-4.238-3.618-4.008-6.659c0.137-1.812,0.26-3.625,0.39-5.438c-0.31-0.753-0.619-1.506-0.929-2.26
		C286.885,515.026,287.932,512.692,285.715,512.722z"/>
	<path fill="#FFFFFF" d="M369.285,524.061c-0.053-2.882,0.012-5.767-0.023-8.649c-0.012-0.991,0.328-2.412-1.24-2.43
		c-2.556-0.029-5.2-0.523-9.163,0.868c4.672,1.175,4.816,3.725,4.604,6.512c-0.115,1.508-0.144,3.05,0.037,4.546
		c0.323,2.669,0.26,5.677,3.574,6.725c3.385,1.07,6.51,0.79,8.9-2.243c-0.232-0.276-0.465-0.551-0.697-0.827
		C370.307,529.875,369.38,529.199,369.285,524.061z"/>
	<path fill="#FFFFFF" d="M716.808,514.687c5.011,3.662,5.017,12.351,0.36,15.88c3.795,1.086,8.203,1.047,11.523-0.101
		c-3.67-3.591-3.716-9.98-0.108-14.978c-0.366-0.278-0.732-0.556-1.098-0.834C723.951,511.457,720.554,513.187,716.808,514.687z"/>
	<path fill="#FFFFFF" d="M605.067,514.687c5.011,3.662,5.017,12.351,0.36,15.88c3.795,1.086,8.203,1.047,11.523-0.101
		c-3.67-3.591-3.716-9.98-0.108-14.978c-0.366-0.278-0.732-0.556-1.098-0.834C612.209,511.457,608.813,513.187,605.067,514.687z"/>
	<path fill="#FFFFFF" d="M627.953,524.299c-0.02-1.373-0.069-2.751,0.01-4.12c0.178-3.083-0.265-6.028-3.473-7.255
		c-3.11-1.189-6.297-1.189-8.746,1.729c0.953-0.495,1.069,0.112,1.098,0.834c3.778-1.283,5.58,0.164,5.396,4.055
		c-0.187,3.949,1.414,8.307-3.106,11.408c6.812,0.715,9.133,0.578,13.504-1.248C627.156,529.833,627.989,526.835,627.953,524.299z"
		/>
	<path fill="#FFFFFF" d="M615.744,514.653c0.366,0.278,0.732,0.556,1.098,0.834C616.814,514.766,616.697,514.159,615.744,514.653z"
		/>
	<path fill="#FFFFFF" d="M739.694,524.299c-0.02-1.373-0.069-2.751,0.01-4.12c0.178-3.083-0.265-6.028-3.473-7.255
		c-3.11-1.189-6.297-1.189-8.746,1.729c0.953-0.495,1.069,0.112,1.098,0.834c3.778-1.283,5.58,0.164,5.396,4.055
		c-0.187,3.949,1.414,8.307-4.015,12.032c5.338-0.667,9.188,0.47,13.653-1.479C738.898,529.833,739.731,526.835,739.694,524.299z"/>
	<path fill="#FFFFFF" d="M727.486,514.653c0.366,0.278,0.732,0.556,1.098,0.834C728.555,514.766,728.439,514.159,727.486,514.653z"
		/>
	<path fill="#FFFFFF" d="M402.553,524.216c-0.064-2.888,0.126-5.79-0.093-8.663c-0.074-0.977,1.279-3.185-1.304-2.916
		c-2.632,0.274-5.364,0.464-7.662,2.054c-0.086,0.06,0.153,0.811,0.402,1.101c4.342,5.055,4.147,11.33-1.031,15.127
		c4.449,0,8.37,0,12.29,0c0.481-0.353,0.962-0.705,1.443-1.057C401.447,529.63,402.607,526.632,402.553,524.216z"/>
	<path fill="#FFFFFF" d="M384.026,528.942c-1.497-1.044-1.339-2.634-1.357-4.136c-0.037-3.204,0.001-6.409-0.021-9.613
		c-0.007-1.011,0.275-2.352-1.392-2.255c-2.425,0.141-4.966-0.559-7.66,0.565c4.401,3.319,4.956,9.848,1.681,15.058
		c0.671-0.094,1.002,0.098,0.697,0.827c1.63,3.231,4.464,2.213,7.047,1.951c0.996-0.101,2.422,0.55,2.904-0.604
		C386.63,529.05,384.762,529.456,384.026,528.942z"/>
	<path fill="#FFFFFF" d="M375.276,528.562c0.232,0.276,0.465,0.551,0.697,0.827C376.278,528.66,375.947,528.468,375.276,528.562z"/>
	<path fill="#FFFFFF" d="M292.558,512.479c-2.415,0.478-3.423,2.781-5.348,3.865c0.734,0.579,1.432,1.172,0.929,2.26
		c1.348-1.149,2.281-3.716,4.647-1.74c1.487,1.242,2.721,2.537,4.534,0.629c0.945-0.995,1.092-2.041,0.329-3.252
		C296.404,512.265,294.656,512.064,292.558,512.479z"/>
	<path fill="#FFFFFF" d="M287.21,516.344c0.31,0.753,0.619,1.506,0.929,2.26C288.642,517.516,287.944,516.923,287.21,516.344z"/>
	<path fill="#FFFFFF" d="M396.493,503.292c0.046,1.918,1.309,3.176,3.221,3.159c1.957-0.017,2.898-1.396,3.085-3.285
		c-0.27-1.912-1.262-3.164-3.261-3.127C397.528,500.076,396.448,501.395,396.493,503.292z"/>
	<path fill="#FFFFFF" d="M659.486,512.245c-0.947,0.024-1.78,0.314-2.403,1.07c0.228,0.263,0.302,0.524,0.223,0.784
		c-0.079,0.259-0.157,0.389-0.234,0.389c0.706,0.267,1.432,0.493,2.115,0.81c0.854,0.397,1.761,0.854,2.413-0.13
		c0.282-0.425,0.279-1.213,0.101-1.732C661.363,512.456,660.451,512.221,659.486,512.245z"/>
	<path fill="#FFFFFF" d="M657.306,514.099c0.079-0.26,0.005-0.521-0.223-0.784l0,0c-0.004,0.391-0.007,0.781-0.011,1.172
		C657.149,514.488,657.227,514.358,657.306,514.099z"/>
	<path fill="#FFFFFF" d="M466.542,216.086c0,0.013,0.002,0.026,0.001,0.039l0.06-0.062
		C466.582,216.072,466.563,216.077,466.542,216.086z"/>
	<path fill="#FFFFFF" d="M471.98,158.55"/>
	<path fill="#FFFFFF" d="M385.112,100.722c1.199,0.369,0.725,1.383,0.873,2.178c0.084,0.452-0.265,1.78,0.976,0.689
		C385.749,103.017,387.749,100.374,385.112,100.722z"/>
	<path fill="#FFFFFF" d="M386.95,100.519c-0.642-1.792-1.325-0.887-1.838,0.202c2.637-0.347,0.636,2.295,1.848,2.867
		C386.977,102.558,387.275,101.427,386.95,100.519z"/>
	<path fill="#FFFFFF" d="M388.784,214.195c0.167,0.144,0.32,0.314,0.51,0.414c0.053,0.028,0.312-0.151,0.312-0.235
		c-0.001-1.889-0.025-3.779-0.045-5.668C388.697,210.45,389.876,212.483,388.784,214.195z"/>
	<path fill="#FFFFFF" d="M388.784,214.195c1.093-1.712-0.087-3.745,0.777-5.489C388.108,210.367,388.809,212.332,388.784,214.195z"
		/>
	<path fill="#FFFFFF" d="M471.68,217.57c-2.405-0.677-3.74-1.052-5.052-1.422"/>
	<path fill="#FFFFFF" d="M466.604,216.063c0,0-0.06,0.062-0.06,0.062c0.028,0.008,0.057,0.016,0.085,0.024
		C466.621,216.119,466.611,216.094,466.604,216.063z"/>
	<path fill="#FFFFFF" d="M374.918,98.044c0.383-0.541-0.002-1.51,0.962-1.726C373.864,95.948,374.808,97.229,374.918,98.044z"/>
	<path fill="#FFFFFF" d="M374.68,94.951c-1.027,0.899-0.501,2.097,0.238,3.093c-0.11-0.816-1.054-2.096,0.962-1.726
		C375.926,95.424,375.107,94.577,374.68,94.951z"/>
	<path fill="#FFFFFF" d="M452.203,251.252c2.265,6.821,0.343,12.56-5.217,17.037c-3.178,2.559-9.049,2.449-10.021,5.845
		c-1.036,3.618,1.314,8.202,2.171,12.368c0.091,0.445,0.073,0.911,0.118,1.366c0.83,8.263,0.829,8.29,8.867,8.689
		c2.914,0.145,5.74,0.632,8.471,1.65c3.578,1.335,6.382,3.583,7.87,7.165c4.508,10.853-3.054,22.808-14.766,23.384
		c-1.672,0.082-3.35,0.025-5.026,0.033c0.054,0.266,0.074,0.535,0.06,0.807c36.018,7.662,70.202,0.82,103.508-13.054
		c1.797-0.748,2.467-1.767,2.414-3.781c-0.419-15.863-0.742-31.728-1.022-47.594c-0.043-2.45-0.136-3.67-3.23-2.334
		c-10.915,4.715-22.447,6.547-34.3,6.706c-21.911,0.295-41.607-5.217-57.322-21.461c-1.364-1.41-2.996-2.56-4.503-3.831
		c-0.076,0.508-0.152,1.015-0.227,1.523C450.771,247.595,451.585,249.391,452.203,251.252z"/>
	<path fill="#FFFFFF" d="M422.851,243.02c1.271,1.539,1.93,1.422,3.547,0.243c8.897-6.485,16.308-5.608,23.649,2.506
		c-0.378-0.575-0.302-1.083,0.227-1.523c-10.38-10.587-20.866-21.072-31.083-32.618c-0.793,7.329-5.651,10.974-10.287,14.941
		C413.626,232.117,418.305,237.514,422.851,243.02z"/>
	<path fill="#FFFFFF" d="M450.047,245.769c0.076-0.508,0.152-1.015,0.227-1.523C449.745,244.686,449.669,245.194,450.047,245.769z"
		/>
	<path fill="#FFFFFF" d="M547.721,43.828c-1.09,0.209-2.333-0.12-3.189,0.909c2.648,0.663,4.329,2.616,6.159,4.795
		c0.81-4.731,4.839-4.152,8.135-4.954C555.087,41.258,551.276,45.245,547.721,43.828z"/>
	<path fill="#FFFFFF" d="M568.787,55.735c-1.09,0.209-2.333-0.12-3.189,0.909c2.648,0.663,4.329,2.617,6.159,4.795
		c0.81-4.731,4.839-4.152,8.135-4.954C576.153,53.164,572.342,57.152,568.787,55.735z"/>
	<path fill="#FFFFFF" d="M568.787,55.735c-2.372-1.347-4.558-0.885-6.749,0.635c1.221,0.776,2.407,0.281,3.56,0.273
		C566.137,54.501,567.638,55.737,568.787,55.735z"/>
	<path fill="#FFFFFF" d="M565.598,56.643c0.856-1.029,2.099-0.7,3.189-0.909C567.638,55.737,566.137,54.501,565.598,56.643z"/>
	<path fill="#FFFFFF" d="M547.721,43.828c-2.372-1.347-4.558-0.885-6.749,0.635c1.221,0.775,2.407,0.281,3.56,0.273
		C545.071,42.594,546.572,43.83,547.721,43.828z"/>
	<path fill="#FFFFFF" d="M544.532,44.737c0.856-1.029,2.099-0.7,3.189-0.909C546.572,43.83,545.071,42.594,544.532,44.737z"/>
	<path fill="#FFFFFF" d="M444.462,329.075c0.064-0.191,0.134-0.286,0.208-0.286c-1.022-0.682-2.037-1.457-3.513-0.106
		c1.372,0.267,2.247,1.282,3.572,0.913C444.488,329.434,444.399,329.26,444.462,329.075z"/>
	<path fill="#FFFFFF" d="M444.462,329.075c-0.063,0.185,0.026,0.359,0.268,0.521c0.014-0.271-0.006-0.54-0.06-0.807
		C444.595,328.789,444.526,328.885,444.462,329.075z"/>
	<path fill="#FFFFFF" d="M591.466,202.744c-1.068,0.019-2.156-0.131-3.201,0.026c-2.781,0.416-3.859-0.569-3.534-3.459
		c0.255-2.26,0.061-4.573,0.037-6.862c-0.01-0.97-0.195-1.834-1.485-1.801c-1.347,0.035-1.291,1.035-1.311,1.916
		c-0.041,1.83-0.012,3.663-0.015,5.494c-0.002,1.831,0.019,3.663-0.009,5.494c-0.021,1.37,0.235,2.43,1.959,2.354
		c2.585-0.114,5.172-0.194,7.759-0.273c1.025-0.032,1.854-0.342,1.77-1.535C593.353,202.922,592.462,202.726,591.466,202.744z"/>
	<path fill="#FFFFFF" d="M377.856,296.54c0.051,0.28,0.102,0.559,0.153,0.839c15.086,1.215,30.174,2.41,45.256,3.67
		c1.747,0.146,2.158-0.607,1.988-2.096c-0.859-7.541-2.282-14.961-4.527-22.454C406.259,283.263,392.057,289.902,377.856,296.54z"/>
	<path fill="#FFFFFF" d="M395.257,235.275c-1.584-1.561-2.382-1.106-3.506,0.407c-9.792,13.186-19.629,26.338-30.071,40.327
		c1.908-0.366,2.672-0.391,3.341-0.658c15.098-6.009,30.166-12.092,45.292-18.03c2.568-1.008,2.855-2.038,1.273-4.2
		C406.789,246.57,401.011,240.945,395.257,235.275z"/>
	<path fill="#FFFFFF" d="M378.301,218.83c-7.141-5.443-15.508-8.239-23.849-11.175c-2.983-1.05-3.637-0.216-3.989,2.515
		c-2.06,16.015-4.232,32.016-6.516,49.149c12.277-12.81,23.722-24.841,35.296-36.747
		C381.337,220.418,379.501,219.744,378.301,218.83z"/>
	<path fill="#FFFFFF" d="M424.245,319.898c-4.933-0.743-9.858-1.538-14.787-2.311c-0.058,0.267-0.116,0.533-0.174,0.8
		c4.473,2.084,8.933,4.198,13.429,6.231c1.006,0.455,2.475,2.058,2.867-0.609C425.81,322.443,427.491,320.388,424.245,319.898z"/>
	<path fill="#FFFFFF" d="M322.852,211.411c1.566,6.524,4.325,12.247,6.513,19.157c1.606-7.205,3.271-13.881,5.009-20.536
		c0.786-3.009-0.362-4.233-3.269-4.521c-2.495-0.247-6.65-0.205-9.321-0.129c-0.626,3.38,0.492,0.251,0.458,0.153
		c-0.927,1.091-0.183-0.791-1.298,0.153C321.02,207.365,322.492,209.908,322.852,211.411z"/>
</g>
</svg>
