<?xml version="1.0" encoding="utf-8"?>
<!-- Generator: Adobe Illustrator 17.0.2, SVG Export Plug-In . SVG Version: 6.00 Build 0)  -->
<!DOCTYPE svg PUBLIC "-//W3C//DTD SVG 1.1//EN" "http://www.w3.org/Graphics/SVG/1.1/DTD/svg11.dtd">
<svg version="1.1" id="Layer_1" xmlns="http://www.w3.org/2000/svg" xmlns:xlink="http://www.w3.org/1999/xlink" x="0px" y="0px"
	 width="150px" height="150px" viewBox="0 0 150 150" enable-background="new 0 0 150 150" xml:space="preserve">
<g opacity="0.4">
	<path d="M122.653,23.751v51.421c0,14.158-3.315,25.745-9.949,34.764c-6.63,9.016-15.761,14.791-27.387,17.327v-22.58
		c3.877-1.195,7.042-2.683,9.501-4.472c2.459-1.789,4.359-3.912,5.701-6.372c1.342-2.459,2.236-5.219,2.683-8.272
		c0.447-3.056,0.67-6.521,0.67-10.396v-5.366H85.318V23.751H122.653z M60.278,23.751v51.421c0,14.008-3.315,25.56-9.949,34.653
		c-6.63,9.089-15.685,14.902-27.163,17.438v-22.58c3.877-1.195,7.042-2.683,9.501-4.472c2.459-1.789,4.359-3.912,5.701-6.372
		c1.341-2.459,2.235-5.219,2.683-8.272c0.447-3.056,0.671-6.521,0.671-10.396v-5.366H23.166V23.751H60.278z"/>
</g>
</svg>
